<?xml version="1.0" encoding="UTF-8" standalone="no"?>
<!DOCTYPE svg PUBLIC "-//W3C//DTD SVG 1.1//EN" "http://www.w3.org/Graphics/SVG/1.1/DTD/svg11.dtd">
<svg width="100%" height="100%" viewBox="0 0 2363 2363" version="1.1" xmlns="http://www.w3.org/2000/svg" xmlns:xlink="http://www.w3.org/1999/xlink" xml:space="preserve" xmlns:serif="http://www.serif.com/" style="fill-rule:evenodd;clip-rule:evenodd;stroke-linejoin:round;stroke-miterlimit:1.41421;">
    <g transform="matrix(1.33893,0,0,1.6343,-311.74,-521.761)">
        <rect x="141.588" y="514.55" width="2053.95" height="1367.66" style="fill:rgb(11,129,127);"/>
    </g>
    <g transform="matrix(0.375,0,0,0.375,953.002,848.673)">
        <g transform="matrix(26.5592,0,0,26.5588,608.254,-59.0551)">
            <path d="M0,71.154C19.649,71.154 35.577,55.226 35.577,35.577C35.577,15.929 19.649,0 0,0C-19.648,0 -35.576,15.929 -35.576,35.577C-35.576,55.226 -19.648,71.154 0,71.154" style="fill:white;fill-rule:nonzero;"/>
        </g>
        <g transform="matrix(1.27068,0,0,1.32974,-262.473,-511.083)">
            <path d="M105.427,1299.21L105.427,801.81L259.704,801.81C381.975,801.81 455.806,850.356 481.199,947.446C489.094,978.174 493.042,1012.63 493.042,1050.83L493.042,1063.95C493.042,1138.85 472.664,1196.68 431.907,1237.44C390.723,1278.62 332.469,1299.21 257.144,1299.21L105.427,1299.21ZM160.8,1248.96L257.144,1248.96C314.971,1248.96 359.462,1232 390.617,1198.07C420.704,1165.42 435.748,1120.71 435.748,1063.95L435.748,1050.83C434.467,982.761 420.384,933.043 393.497,901.675C365.33,868.813 320.306,852.383 258.424,852.383L160.8,852.383L160.8,1248.96Z" style="fill:rgb(11,129,127);fill-rule:nonzero;"/>
        </g>
        <g transform="matrix(1.30199,0,0,1.26549,-296.329,-474.788)">
            <path d="M789.393,1219.68C760.858,1248.86 725.51,1263.45 683.349,1263.45C653.371,1263.45 627.321,1254.15 605.199,1235.56C582.435,1216.48 569.931,1192.83 567.686,1164.62C567.526,1163.34 567.446,1162.05 567.446,1160.77C567.446,1159.49 567.446,1158.21 567.446,1156.92C567.446,1133.04 575.221,1111 590.771,1090.8C604.878,1072.36 623.714,1057.53 647.28,1046.31C629.646,1024.19 620.027,998.86 618.424,970.325C617.462,945.798 625.077,925.038 641.268,908.045C657.139,891.213 676.776,882.797 700.181,882.797C723.747,882.797 742.904,889.93 757.652,904.198C772.24,917.984 779.534,935.939 779.534,958.062C779.534,984.352 769.996,1005.75 750.919,1022.26C747.873,1024.83 744.026,1027.96 739.377,1031.64L699.22,1061.46C700.342,1062.9 701.424,1064.43 702.466,1066.03C703.508,1067.63 705.311,1070.04 707.876,1073.24C745.228,1117.65 772.16,1147.95 788.672,1164.14C799.733,1154.52 810.394,1139.37 820.653,1118.69C823.699,1112.44 826.424,1106.03 828.829,1099.45L863.937,1124.46C847.906,1153.96 830.593,1176.4 811.997,1191.79L869.227,1237L832.677,1267.54L789.393,1219.68ZM680.704,1033.57C706.033,1019.46 723.827,1001.43 734.087,979.463C737.774,971.768 739.617,962.59 739.617,951.93C739.617,941.269 736.291,932.813 729.638,926.561C722.985,920.309 714.93,917.183 705.472,917.183C696.013,917.183 688.439,918.626 682.748,921.511C677.057,924.397 672.288,928.244 668.44,933.053C660.585,942.832 656.658,955.016 656.658,969.604C656.658,988.2 663.952,1008.24 678.54,1029.72L680.704,1033.57ZM630.207,1205.14C637.1,1211.79 645.356,1217.08 654.974,1221.01C664.593,1224.93 674.091,1226.9 683.469,1226.9C692.847,1226.9 701.143,1226.06 708.357,1224.37C715.571,1222.69 722.545,1220.41 729.278,1217.52C742.583,1211.91 755.007,1204.54 766.549,1195.4L661.227,1076.61C647.921,1081.42 634.936,1092.16 622.272,1108.83C612.974,1123.42 608.325,1137.01 608.325,1149.59C608.325,1162.17 610.248,1172.91 614.096,1181.81C617.943,1190.71 623.314,1198.48 630.207,1205.14Z" style="fill:rgb(11,129,127);fill-rule:nonzero;"/>
        </g>
        <g transform="matrix(1.29245,0,0,1.32876,-327.355,-509.871)">
            <path d="M960.897,801.49L1084.13,801.49C1142.17,801.49 1185.06,810.132 1212.8,827.417C1245.02,847.475 1261.77,880.976 1263.05,927.921C1263.69,971.239 1249.08,1003.25 1219.2,1023.95C1210.03,1030.35 1200.1,1035.25 1189.43,1038.67C1216.75,1039.74 1240.33,1049.55 1260.17,1068.12C1283.64,1090.31 1294.74,1120.5 1293.46,1158.7C1292.18,1208.42 1275.75,1244.59 1244.17,1267.2C1212.59,1289.4 1163.72,1300.07 1097.57,1299.21L960.897,1299.21L960.897,801.49ZM1098.85,1023.31C1172.26,1025.22 1207.79,993.431 1205.44,927.921C1204.8,885.244 1181.64,860.065 1135.98,852.383C1120.83,850.035 1103.55,848.862 1084.13,848.862L1015.63,848.862L1015.63,1023.31L1098.85,1023.31ZM1097.57,1251.2C1141.74,1252.05 1174.82,1246.51 1196.8,1234.56C1221.98,1220.69 1234.99,1197.53 1235.85,1165.1C1236.91,1121.78 1222.62,1093.72 1192.95,1080.92C1176.74,1074.09 1158.87,1070.41 1139.34,1069.88C1119.82,1069.34 1103.76,1069.08 1091.17,1069.08L1015.63,1069.08L1015.63,1251.2L1097.57,1251.2Z" style="fill:rgb(11,129,127);fill-rule:nonzero;"/>
        </g>
    </g>
    <g transform="matrix(1.92923,0,0,1.98412,-813.338,-1982.98)">
        <path d="M584.597,1853.9C584.597,1860.77 582.731,1866.03 579,1869.66C575.268,1873.3 569.899,1875.12 562.892,1875.12L551.357,1875.12L551.357,1833.47L564.117,1833.47C570.592,1833.47 575.624,1835.27 579.213,1838.86C582.802,1842.45 584.597,1847.46 584.597,1853.9ZM579.47,1854.07C579.47,1848.64 578.107,1844.54 575.382,1841.79C572.657,1839.04 568.608,1837.66 563.234,1837.66L556.199,1837.66L556.199,1870.93L562.095,1870.93C567.868,1870.93 572.206,1869.51 575.112,1866.67C578.017,1863.83 579.47,1859.63 579.47,1854.07Z" style="fill:white;fill-rule:nonzero;"/>
        <path d="M617.096,1875.12L593.882,1875.12L593.882,1833.47L617.096,1833.47L617.096,1837.78L598.724,1837.78L598.724,1851.19L615.985,1851.19L615.985,1855.46L598.724,1855.46L598.724,1870.79L617.096,1870.79L617.096,1875.12Z" style="fill:white;fill-rule:nonzero;"/>
        <path d="M652.5,1875.12L647.316,1861.87L630.625,1861.87L625.498,1875.12L620.599,1875.12L637.062,1833.3L641.135,1833.3L657.513,1875.12L652.5,1875.12ZM645.807,1857.51L640.965,1844.61C640.338,1842.98 639.692,1840.97 639.028,1838.6C638.61,1840.42 638.012,1842.43 637.233,1844.61L632.334,1857.51L645.807,1857.51Z" style="fill:white;fill-rule:nonzero;"/>
        <path d="M668.08,1857.8L668.08,1875.12L663.238,1875.12L663.238,1833.47L674.66,1833.47C679.768,1833.47 683.542,1834.45 685.982,1836.41C688.422,1838.36 689.642,1841.31 689.642,1845.24C689.642,1850.74 686.851,1854.47 681.268,1856.4L692.576,1875.12L686.851,1875.12L676.768,1857.8L668.08,1857.8ZM668.08,1853.64L674.717,1853.64C678.135,1853.64 680.641,1852.96 682.237,1851.6C683.832,1850.25 684.629,1848.21 684.629,1845.49C684.629,1842.74 683.817,1840.76 682.194,1839.54C680.57,1838.33 677.964,1837.72 674.375,1837.72L668.08,1837.72L668.08,1853.64Z" style="fill:white;fill-rule:nonzero;"/>
        <path d="M731.826,1875.12L726.3,1875.12L703.542,1840.17L703.314,1840.17C703.618,1844.27 703.77,1848.03 703.77,1851.45L703.77,1875.12L699.298,1875.12L699.298,1833.47L704.767,1833.47L727.468,1868.28L727.696,1868.28C727.658,1867.77 727.572,1866.12 727.439,1863.34C727.306,1860.56 727.259,1858.57 727.297,1857.37L727.297,1833.47L731.826,1833.47L731.826,1875.12Z" style="fill:white;fill-rule:nonzero;"/>
        <path d="M766.774,1864.04C766.774,1867.7 765.445,1870.56 762.787,1872.61C760.128,1874.66 756.52,1875.69 751.963,1875.69C747.026,1875.69 743.228,1875.05 740.57,1873.78L740.57,1869.11C742.279,1869.83 744.14,1870.4 746.153,1870.82C748.165,1871.23 750.159,1871.44 752.134,1871.44C755.362,1871.44 757.793,1870.83 759.426,1869.6C761.059,1868.38 761.875,1866.67 761.875,1864.49C761.875,1863.05 761.586,1861.87 761.006,1860.95C760.427,1860.03 759.459,1859.17 758.101,1858.4C756.744,1857.62 754.678,1856.74 751.906,1855.75C748.032,1854.36 745.265,1852.72 743.603,1850.82C741.942,1848.92 741.111,1846.44 741.111,1843.39C741.111,1840.18 742.317,1837.62 744.728,1835.72C747.14,1833.83 750.33,1832.88 754.299,1832.88C758.438,1832.88 762.245,1833.63 765.72,1835.15L764.211,1839.37C760.774,1837.93 757.432,1837.2 754.185,1837.2C751.621,1837.2 749.618,1837.76 748.175,1838.86C746.732,1839.96 746.01,1841.49 746.01,1843.44C746.01,1844.89 746.276,1846.07 746.808,1846.99C747.339,1847.91 748.237,1848.76 749.499,1849.52C750.762,1850.29 752.694,1851.14 755.296,1852.07C759.663,1853.63 762.668,1855.3 764.311,1857.09C765.953,1858.87 766.774,1861.19 766.774,1864.04Z" style="fill:white;fill-rule:nonzero;"/>
        <path d="M796.511,1841.76C796.511,1843.07 796.852,1844.32 797.536,1845.51C798.22,1846.69 799.387,1848.12 801.039,1849.8C803.489,1848.37 805.193,1847.06 806.152,1845.85C807.111,1844.64 807.591,1843.25 807.591,1841.68C807.591,1840.22 807.102,1839.02 806.124,1838.1C805.146,1837.18 803.84,1836.72 802.207,1836.72C800.517,1836.72 799.145,1837.18 798.091,1838.09C797.038,1839 796.511,1840.22 796.511,1841.76ZM800.926,1871.44C805.502,1871.44 809.3,1869.98 812.319,1867.06L799.872,1854.98C797.764,1856.27 796.273,1857.34 795.4,1858.18C794.526,1859.03 793.881,1859.93 793.463,1860.9C793.045,1861.87 792.836,1862.97 792.836,1864.21C792.836,1866.43 793.572,1868.19 795.044,1869.49C796.515,1870.79 798.476,1871.44 800.926,1871.44ZM787.937,1864.32C787.937,1861.85 788.597,1859.67 789.917,1857.77C791.237,1855.87 793.605,1853.95 797.023,1852.02C795.409,1850.21 794.313,1848.85 793.734,1847.91C793.154,1846.98 792.694,1846.02 792.352,1845.01C792.01,1844 791.839,1842.96 791.839,1841.88C791.839,1839.03 792.77,1836.81 794.631,1835.21C796.492,1833.62 799.084,1832.82 802.407,1832.82C805.483,1832.82 807.904,1833.61 809.67,1835.2C811.436,1836.78 812.319,1838.99 812.319,1841.82C812.319,1843.85 811.673,1845.73 810.382,1847.44C809.091,1849.16 806.954,1850.9 803.973,1852.67L815.566,1863.81C816.629,1862.63 817.479,1861.25 818.115,1859.66C818.751,1858.08 819.288,1856.35 819.724,1854.47L824.509,1854.47C823.218,1859.9 821.272,1864.02 818.67,1866.83L827.187,1875.12L820.664,1875.12L815.395,1870.05C813.154,1872.06 810.876,1873.5 808.559,1874.38C806.242,1875.25 803.66,1875.69 800.812,1875.69C796.729,1875.69 793.563,1874.68 791.312,1872.67C789.062,1870.65 787.937,1867.87 787.937,1864.32Z" style="fill:white;fill-rule:nonzero;"/>
        <path d="M848.179,1833.47L859.942,1833.47C865.468,1833.47 869.465,1834.3 871.934,1835.95C874.402,1837.6 875.637,1840.22 875.637,1843.79C875.637,1846.25 874.948,1848.29 873.572,1849.89C872.195,1851.5 870.187,1852.54 867.547,1853.01L867.547,1853.3C873.871,1854.38 877.032,1857.7 877.032,1863.27C877.032,1866.99 875.774,1869.89 873.258,1871.98C870.742,1874.07 867.225,1875.12 862.705,1875.12L848.179,1875.12L848.179,1833.47ZM853.021,1851.3L860.996,1851.3C864.414,1851.3 866.873,1850.77 868.373,1849.69C869.874,1848.62 870.624,1846.81 870.624,1844.27C870.624,1841.93 869.788,1840.25 868.117,1839.21C866.446,1838.18 863.788,1837.66 860.142,1837.66L853.021,1837.66L853.021,1851.3ZM853.021,1855.41L853.021,1870.99L861.708,1870.99C865.069,1870.99 867.6,1870.34 869.299,1869.04C870.999,1867.73 871.848,1865.7 871.848,1862.92C871.848,1860.34 870.98,1858.44 869.242,1857.23C867.505,1856.01 864.861,1855.41 861.31,1855.41L853.021,1855.41Z" style="fill:white;fill-rule:nonzero;"/>
        <path d="M890.818,1857.8L890.818,1875.12L885.976,1875.12L885.976,1833.47L897.398,1833.47C902.506,1833.47 906.28,1834.45 908.72,1836.41C911.16,1838.36 912.38,1841.31 912.38,1845.24C912.38,1850.74 909.588,1854.47 904.006,1856.4L915.314,1875.12L909.588,1875.12L899.505,1857.8L890.818,1857.8ZM890.818,1853.64L897.455,1853.64C900.873,1853.64 903.379,1852.96 904.974,1851.6C906.569,1850.25 907.367,1848.21 907.367,1845.49C907.367,1842.74 906.555,1840.76 904.931,1839.54C903.308,1838.33 900.702,1837.72 897.113,1837.72L890.818,1837.72L890.818,1853.64Z" style="fill:white;fill-rule:nonzero;"/>
        <path d="M958.181,1854.24C958.181,1860.9 956.495,1866.14 953.125,1869.96C949.754,1873.78 945.069,1875.69 939.068,1875.69C932.935,1875.69 928.202,1873.81 924.87,1870.06C921.537,1866.31 919.871,1861.02 919.871,1854.18C919.871,1847.4 921.542,1842.15 924.884,1838.42C928.226,1834.68 932.973,1832.82 939.125,1832.82C945.107,1832.82 949.778,1834.72 953.139,1838.52C956.5,1842.31 958.181,1847.55 958.181,1854.24ZM924.998,1854.24C924.998,1859.88 926.199,1864.15 928.601,1867.07C931.003,1869.98 934.492,1871.44 939.068,1871.44C943.683,1871.44 947.167,1869.99 949.522,1867.08C951.876,1864.18 953.054,1859.9 953.054,1854.24C953.054,1848.64 951.881,1844.39 949.536,1841.49C947.191,1838.6 943.721,1837.15 939.125,1837.15C934.511,1837.15 931.003,1838.61 928.601,1841.52C926.199,1844.43 924.998,1848.67 924.998,1854.24Z" style="fill:white;fill-rule:nonzero;"/>
        <path d="M1003.24,1875.12L998.456,1875.12L990.053,1847.23C989.654,1846 989.208,1844.44 988.714,1842.56C988.221,1840.68 987.964,1839.55 987.945,1839.17C987.528,1841.68 986.863,1844.42 985.952,1847.4L977.805,1875.12L973.02,1875.12L961.94,1833.47L967.067,1833.47L973.647,1859.19C974.558,1862.8 975.223,1866.07 975.641,1868.99C976.153,1865.52 976.913,1862.12 977.919,1858.8L985.382,1833.47L990.509,1833.47L998.342,1859.02C999.253,1861.97 1000.02,1865.29 1000.65,1868.99C1001.01,1866.3 1001.69,1863.01 1002.7,1859.14L1009.25,1833.47L1014.38,1833.47L1003.24,1875.12Z" style="fill:white;fill-rule:nonzero;"/>
        <path d="M1053.43,1875.12L1047.9,1875.12L1025.14,1840.17L1024.92,1840.17C1025.22,1844.27 1025.37,1848.03 1025.37,1851.45L1025.37,1875.12L1020.9,1875.12L1020.9,1833.47L1026.37,1833.47L1049.07,1868.28L1049.3,1868.28C1049.26,1867.77 1049.17,1866.12 1049.04,1863.34C1048.91,1860.56 1048.86,1858.57 1048.9,1857.37L1048.9,1833.47L1053.43,1833.47L1053.43,1875.12Z" style="fill:white;fill-rule:nonzero;"/>
        <path d="M1088.09,1875.12L1064.88,1875.12L1064.88,1833.47L1088.09,1833.47L1088.09,1837.78L1069.72,1837.78L1069.72,1851.19L1086.98,1851.19L1086.98,1855.46L1069.72,1855.46L1069.72,1870.79L1088.09,1870.79L1088.09,1875.12Z" style="fill:white;fill-rule:nonzero;"/>
        <path d="M1125.29,1875.12L1120.45,1875.12L1120.45,1837.78L1107.26,1837.78L1107.26,1833.47L1138.48,1833.47L1138.48,1837.78L1125.29,1837.78L1125.29,1875.12Z" style="fill:white;fill-rule:nonzero;"/>
        <path d="M1149.59,1857.8L1149.59,1875.12L1144.75,1875.12L1144.75,1833.47L1156.17,1833.47C1161.27,1833.47 1165.05,1834.45 1167.49,1836.41C1169.93,1838.36 1171.15,1841.31 1171.15,1845.24C1171.15,1850.74 1168.36,1854.47 1162.77,1856.4L1174.08,1875.12L1168.36,1875.12L1158.27,1857.8L1149.59,1857.8ZM1149.59,1853.64L1156.22,1853.64C1159.64,1853.64 1162.15,1852.96 1163.74,1851.6C1165.34,1850.25 1166.13,1848.21 1166.13,1845.49C1166.13,1842.74 1165.32,1840.76 1163.7,1839.54C1162.08,1838.33 1159.47,1837.72 1155.88,1837.72L1149.59,1837.72L1149.59,1853.64Z" style="fill:white;fill-rule:nonzero;"/>
        <path d="M1206.98,1875.12L1201.8,1861.87L1185.11,1861.87L1179.98,1875.12L1175.08,1875.12L1191.54,1833.3L1195.62,1833.3L1211.99,1875.12L1206.98,1875.12ZM1200.29,1857.51L1195.44,1844.61C1194.82,1842.98 1194.17,1840.97 1193.51,1838.6C1193.09,1840.42 1192.49,1842.43 1191.71,1844.61L1186.81,1857.51L1200.29,1857.51Z" style="fill:white;fill-rule:nonzero;"/>
        <path d="M1250.25,1875.12L1244.72,1875.12L1221.96,1840.17L1221.73,1840.17C1222.04,1844.27 1222.19,1848.03 1222.19,1851.45L1222.19,1875.12L1217.72,1875.12L1217.72,1833.47L1223.19,1833.47L1245.89,1868.28L1246.12,1868.28C1246.08,1867.77 1245.99,1866.12 1245.86,1863.34C1245.73,1860.56 1245.68,1858.57 1245.72,1857.37L1245.72,1833.47L1250.25,1833.47L1250.25,1875.12Z" style="fill:white;fill-rule:nonzero;"/>
        <path d="M1285.19,1864.04C1285.19,1867.7 1283.87,1870.56 1281.21,1872.61C1278.55,1874.66 1274.94,1875.69 1270.38,1875.69C1265.45,1875.69 1261.65,1875.05 1258.99,1873.78L1258.99,1869.11C1260.7,1869.83 1262.56,1870.4 1264.57,1870.82C1266.59,1871.23 1268.58,1871.44 1270.55,1871.44C1273.78,1871.44 1276.21,1870.83 1277.85,1869.6C1279.48,1868.38 1280.3,1866.67 1280.3,1864.49C1280.3,1863.05 1280.01,1861.87 1279.43,1860.95C1278.85,1860.03 1277.88,1859.17 1276.52,1858.4C1275.16,1857.62 1273.1,1856.74 1270.33,1855.75C1266.45,1854.36 1263.68,1852.72 1262.02,1850.82C1260.36,1848.92 1259.53,1846.44 1259.53,1843.39C1259.53,1840.18 1260.74,1837.62 1263.15,1835.72C1265.56,1833.83 1268.75,1832.88 1272.72,1832.88C1276.86,1832.88 1280.67,1833.63 1284.14,1835.15L1282.63,1839.37C1279.19,1837.93 1275.85,1837.2 1272.61,1837.2C1270.04,1837.2 1268.04,1837.76 1266.6,1838.86C1265.15,1839.96 1264.43,1841.49 1264.43,1843.44C1264.43,1844.89 1264.7,1846.07 1265.23,1846.99C1265.76,1847.91 1266.66,1848.76 1267.92,1849.52C1269.18,1850.29 1271.12,1851.14 1273.72,1852.07C1278.08,1853.63 1281.09,1855.3 1282.73,1857.09C1284.37,1858.87 1285.19,1861.19 1285.19,1864.04Z" style="fill:white;fill-rule:nonzero;"/>
        <path d="M1293.71,1875.12L1293.71,1833.47L1298.55,1833.47L1298.55,1870.73L1316.92,1870.73L1316.92,1875.12L1293.71,1875.12Z" style="fill:white;fill-rule:nonzero;"/>
        <path d="M1350.16,1875.12L1344.98,1861.87L1328.29,1861.87L1323.16,1875.12L1318.26,1875.12L1334.73,1833.3L1338.8,1833.3L1355.18,1875.12L1350.16,1875.12ZM1343.47,1857.51L1338.63,1844.61C1338,1842.98 1337.36,1840.97 1336.69,1838.6C1336.27,1840.42 1335.68,1842.43 1334.9,1844.61L1330,1857.51L1343.47,1857.51Z" style="fill:white;fill-rule:nonzero;"/>
        <path d="M1369.65,1875.12L1364.81,1875.12L1364.81,1837.78L1351.62,1837.78L1351.62,1833.47L1382.84,1833.47L1382.84,1837.78L1369.65,1837.78L1369.65,1875.12Z" style="fill:white;fill-rule:nonzero;"/>
        <rect x="1389.1" y="1833.47" width="4.842" height="41.642" style="fill:white;fill-rule:nonzero;"/>
        <path d="M1441.51,1854.24C1441.51,1860.9 1439.83,1866.14 1436.45,1869.96C1433.08,1873.78 1428.4,1875.69 1422.4,1875.69C1416.26,1875.69 1411.53,1873.81 1408.2,1870.06C1404.87,1866.31 1403.2,1861.02 1403.2,1854.18C1403.2,1847.4 1404.87,1842.15 1408.21,1838.42C1411.56,1834.68 1416.3,1832.82 1422.45,1832.82C1428.44,1832.82 1433.11,1834.72 1436.47,1838.52C1439.83,1842.31 1441.51,1847.55 1441.51,1854.24ZM1408.33,1854.24C1408.33,1859.88 1409.53,1864.15 1411.93,1867.07C1414.33,1869.98 1417.82,1871.44 1422.4,1871.44C1427.01,1871.44 1430.5,1869.99 1432.85,1867.08C1435.21,1864.18 1436.38,1859.9 1436.38,1854.24C1436.38,1848.64 1435.21,1844.39 1432.87,1841.49C1430.52,1838.6 1427.05,1837.15 1422.45,1837.15C1417.84,1837.15 1414.33,1838.61 1411.93,1841.52C1409.53,1844.43 1408.33,1848.67 1408.33,1854.24Z" style="fill:white;fill-rule:nonzero;"/>
        <path d="M1483.32,1875.12L1477.8,1875.12L1455.04,1840.17L1454.81,1840.17C1455.12,1844.27 1455.27,1848.03 1455.27,1851.45L1455.27,1875.12L1450.8,1875.12L1450.8,1833.47L1456.26,1833.47L1478.96,1868.28L1479.19,1868.28C1479.15,1867.77 1479.07,1866.12 1478.94,1863.34C1478.8,1860.56 1478.76,1858.57 1478.79,1857.37L1478.79,1833.47L1483.32,1833.47L1483.32,1875.12Z" style="fill:white;fill-rule:nonzero;"/>
        <path d="M1518.27,1864.04C1518.27,1867.7 1516.94,1870.56 1514.28,1872.61C1511.63,1874.66 1508.02,1875.69 1503.46,1875.69C1498.52,1875.69 1494.73,1875.05 1492.07,1873.78L1492.07,1869.11C1493.78,1869.83 1495.64,1870.4 1497.65,1870.82C1499.66,1871.23 1501.66,1871.44 1503.63,1871.44C1506.86,1871.44 1509.29,1870.83 1510.92,1869.6C1512.56,1868.38 1513.37,1866.67 1513.37,1864.49C1513.37,1863.05 1513.08,1861.87 1512.5,1860.95C1511.92,1860.03 1510.96,1859.17 1509.6,1858.4C1508.24,1857.62 1506.18,1856.74 1503.4,1855.75C1499.53,1854.36 1496.76,1852.72 1495.1,1850.82C1493.44,1848.92 1492.61,1846.44 1492.61,1843.39C1492.61,1840.18 1493.81,1837.62 1496.23,1835.72C1498.64,1833.83 1501.83,1832.88 1505.8,1832.88C1509.94,1832.88 1513.74,1833.63 1517.22,1835.15L1515.71,1839.37C1512.27,1837.93 1508.93,1837.2 1505.68,1837.2C1503.12,1837.2 1501.12,1837.76 1499.67,1838.86C1498.23,1839.96 1497.51,1841.49 1497.51,1843.44C1497.51,1844.89 1497.77,1846.07 1498.31,1846.99C1498.84,1847.91 1499.73,1848.76 1501,1849.52C1502.26,1850.29 1504.19,1851.14 1506.79,1852.07C1511.16,1853.63 1514.16,1855.3 1515.81,1857.09C1517.45,1858.87 1518.27,1861.19 1518.27,1864.04Z" style="fill:white;fill-rule:nonzero;"/>
        <path d="M695.469,1924.68C695.469,1928.13 694.297,1930.77 691.953,1932.61C689.61,1934.45 686.289,1935.37 681.992,1935.37L676.475,1935.37L676.475,1950.12L673.985,1950.12L673.985,1914.42L682.725,1914.42C691.221,1914.42 695.469,1917.84 695.469,1924.68ZM676.475,1933.22L681.382,1933.22C685.402,1933.22 688.307,1932.56 690.098,1931.23C691.888,1929.9 692.783,1927.75 692.783,1924.77C692.783,1922.02 691.937,1919.99 690.244,1918.66C688.552,1917.33 685.931,1916.67 682.383,1916.67L676.475,1916.67L676.475,1933.22Z" style="fill:white;fill-rule:nonzero;"/>
        <path d="M713.071,1923.07C714.195,1923.07 715.399,1923.18 716.685,1923.41L716.221,1925.73C715.114,1925.45 713.967,1925.31 712.779,1925.31C710.516,1925.31 708.661,1926.27 707.212,1928.19C705.764,1930.11 705.039,1932.54 705.039,1935.47L705.039,1950.12L702.622,1950.12L702.622,1923.58L704.673,1923.58L704.917,1928.36L705.088,1928.36C706.179,1926.41 707.342,1925.04 708.579,1924.25C709.816,1923.46 711.314,1923.07 713.071,1923.07Z" style="fill:white;fill-rule:nonzero;"/>
        <path d="M743.028,1936.81C743.028,1941.14 741.978,1944.52 739.878,1946.95C737.779,1949.39 734.881,1950.6 731.187,1950.6C728.859,1950.6 726.808,1950.04 725.034,1948.92C723.26,1947.8 721.901,1946.18 720.957,1944.09C720.013,1941.99 719.541,1939.56 719.541,1936.81C719.541,1932.48 720.591,1929.11 722.691,1926.69C724.79,1924.27 727.671,1923.07 731.333,1923.07C734.979,1923.07 737.84,1924.29 739.915,1926.74C741.99,1929.19 743.028,1932.55 743.028,1936.81ZM722.08,1936.81C722.08,1940.46 722.882,1943.3 724.485,1945.34C726.088,1947.39 728.355,1948.41 731.284,1948.41C734.214,1948.41 736.481,1947.39 738.084,1945.34C739.687,1943.3 740.488,1940.46 740.488,1936.81C740.488,1933.15 739.679,1930.31 738.059,1928.29C736.44,1926.27 734.165,1925.26 731.236,1925.26C728.306,1925.26 726.048,1926.27 724.461,1928.28C722.874,1930.29 722.08,1933.13 722.08,1936.81Z" style="fill:white;fill-rule:nonzero;"/>
        <path d="M760.239,1925.68L753.989,1925.68L753.989,1950.12L751.572,1950.12L751.572,1925.68L746.641,1925.68L746.641,1924.26L751.572,1923.36L751.572,1921.31C751.572,1918.05 752.171,1915.66 753.367,1914.14C754.563,1912.62 756.52,1911.86 759.238,1911.86C760.703,1911.86 762.168,1912.08 763.633,1912.52L763.071,1914.62C761.769,1914.21 760.475,1914.01 759.19,1914.01C757.302,1914.01 755.963,1914.57 755.174,1915.68C754.384,1916.8 753.989,1918.61 753.989,1921.11L753.989,1923.58L760.239,1923.58L760.239,1925.68Z" style="fill:white;fill-rule:nonzero;"/>
        <path d="M776.084,1950.6C772.227,1950.6 769.22,1949.42 767.063,1947.04C764.907,1944.66 763.828,1941.34 763.828,1937.05C763.828,1932.82 764.87,1929.43 766.953,1926.89C769.037,1924.34 771.844,1923.07 775.376,1923.07C778.501,1923.07 780.967,1924.16 782.774,1926.34C784.58,1928.52 785.484,1931.48 785.484,1935.22L785.484,1937.18L766.367,1937.18C766.4,1940.82 767.25,1943.61 768.919,1945.53C770.587,1947.45 772.975,1948.41 776.084,1948.41C777.598,1948.41 778.928,1948.3 780.076,1948.09C781.223,1947.88 782.676,1947.42 784.434,1946.72L784.434,1948.92C782.936,1949.57 781.553,1950.01 780.283,1950.25C779.014,1950.49 777.614,1950.6 776.084,1950.6ZM775.376,1925.21C772.821,1925.21 770.77,1926.06 769.224,1927.74C767.678,1929.42 766.774,1931.85 766.514,1935.03L782.92,1935.03C782.92,1931.95 782.253,1929.55 780.918,1927.81C779.584,1926.08 777.736,1925.21 775.376,1925.21Z" style="fill:white;fill-rule:nonzero;"/>
        <path d="M809.263,1943.21C809.263,1945.58 808.36,1947.41 806.553,1948.69C804.746,1949.97 802.183,1950.6 798.863,1950.6C795.314,1950.6 792.499,1950.06 790.415,1948.97L790.415,1946.36C793.085,1947.69 795.9,1948.36 798.863,1948.36C801.483,1948.36 803.473,1947.92 804.832,1947.05C806.191,1946.18 806.87,1945.02 806.87,1943.57C806.87,1942.24 806.329,1941.12 805.247,1940.2C804.164,1939.29 802.386,1938.4 799.912,1937.52C797.259,1936.56 795.396,1935.73 794.321,1935.04C793.247,1934.35 792.438,1933.57 791.892,1932.7C791.347,1931.83 791.074,1930.76 791.074,1929.51C791.074,1927.53 791.909,1925.95 793.577,1924.8C795.245,1923.64 797.577,1923.07 800.571,1923.07C803.436,1923.07 806.154,1923.6 808.726,1924.68L807.822,1926.87C805.218,1925.8 802.801,1925.26 800.571,1925.26C798.407,1925.26 796.69,1925.62 795.42,1926.34C794.151,1927.05 793.516,1928.05 793.516,1929.32C793.516,1930.7 794.008,1931.81 794.993,1932.63C795.978,1933.47 797.902,1934.39 800.767,1935.42C803.159,1936.28 804.901,1937.06 805.991,1937.75C807.082,1938.44 807.9,1939.23 808.445,1940.11C808.99,1940.99 809.263,1942.02 809.263,1943.21Z" style="fill:white;fill-rule:nonzero;"/>
        <path d="M832.554,1943.21C832.554,1945.58 831.651,1947.41 829.844,1948.69C828.037,1949.97 825.474,1950.6 822.154,1950.6C818.605,1950.6 815.79,1950.06 813.706,1948.97L813.706,1946.36C816.376,1947.69 819.191,1948.36 822.154,1948.36C824.774,1948.36 826.764,1947.92 828.123,1947.05C829.482,1946.18 830.161,1945.02 830.161,1943.57C830.161,1942.24 829.62,1941.12 828.538,1940.2C827.455,1939.29 825.677,1938.4 823.203,1937.52C820.55,1936.56 818.687,1935.73 817.613,1935.04C816.538,1934.35 815.729,1933.57 815.183,1932.7C814.638,1931.83 814.365,1930.76 814.365,1929.51C814.365,1927.53 815.2,1925.95 816.868,1924.8C818.536,1923.64 820.868,1923.07 823.863,1923.07C826.727,1923.07 829.445,1923.6 832.017,1924.68L831.113,1926.87C828.509,1925.8 826.092,1925.26 823.863,1925.26C821.698,1925.26 819.981,1925.62 818.711,1926.34C817.442,1927.05 816.807,1928.05 816.807,1929.32C816.807,1930.7 817.299,1931.81 818.284,1932.63C819.269,1933.47 821.193,1934.39 824.058,1935.42C826.45,1936.28 828.192,1937.06 829.282,1937.75C830.373,1938.44 831.191,1939.23 831.736,1940.11C832.281,1940.99 832.554,1942.02 832.554,1943.21Z" style="fill:white;fill-rule:nonzero;"/>
        <path d="M841.807,1950.12L839.39,1950.12L839.39,1923.58L841.807,1923.58L841.807,1950.12ZM839.048,1916.2C839.048,1914.64 839.561,1913.86 840.586,1913.86C841.091,1913.86 841.485,1914.07 841.77,1914.47C842.055,1914.88 842.197,1915.46 842.197,1916.2C842.197,1916.94 842.055,1917.52 841.77,1917.94C841.485,1918.36 841.091,1918.57 840.586,1918.57C839.561,1918.57 839.048,1917.78 839.048,1916.2Z" style="fill:white;fill-rule:nonzero;"/>
        <path d="M872.642,1936.81C872.642,1941.14 871.592,1944.52 869.492,1946.95C867.393,1949.39 864.496,1950.6 860.801,1950.6C858.474,1950.6 856.423,1950.04 854.649,1948.92C852.875,1947.8 851.516,1946.18 850.571,1944.09C849.627,1941.99 849.155,1939.56 849.155,1936.81C849.155,1932.48 850.205,1929.11 852.305,1926.69C854.405,1924.27 857.285,1923.07 860.947,1923.07C864.593,1923.07 867.454,1924.29 869.529,1926.74C871.604,1929.19 872.642,1932.55 872.642,1936.81ZM851.695,1936.81C851.695,1940.46 852.496,1943.3 854.099,1945.34C855.703,1947.39 857.969,1948.41 860.899,1948.41C863.828,1948.41 866.095,1947.39 867.698,1945.34C869.301,1943.3 870.103,1940.46 870.103,1936.81C870.103,1933.15 869.293,1930.31 867.674,1928.29C866.054,1926.27 863.78,1925.26 860.85,1925.26C857.92,1925.26 855.662,1926.27 854.075,1928.28C852.488,1930.29 851.695,1933.13 851.695,1936.81Z" style="fill:white;fill-rule:nonzero;"/>
        <path d="M898.496,1950.12L898.496,1932.9C898.496,1930.24 897.935,1928.29 896.812,1927.08C895.689,1925.87 893.947,1925.26 891.587,1925.26C888.413,1925.26 886.09,1926.06 884.617,1927.67C883.144,1929.27 882.407,1931.87 882.407,1935.47L882.407,1950.12L879.99,1950.12L879.99,1923.58L882.041,1923.58L882.505,1927.22L882.652,1927.22C884.377,1924.45 887.445,1923.07 891.856,1923.07C897.878,1923.07 900.889,1926.3 900.889,1932.76L900.889,1950.12L898.496,1950.12Z" style="fill:white;fill-rule:nonzero;"/>
        <path d="M925.596,1950.12L924.986,1945.92L924.79,1945.92C923.456,1947.63 922.084,1948.83 920.676,1949.54C919.269,1950.25 917.604,1950.6 915.684,1950.6C913.08,1950.6 911.053,1949.94 909.605,1948.6C908.156,1947.27 907.432,1945.42 907.432,1943.06C907.432,1940.47 908.51,1938.46 910.667,1937.03C912.823,1935.6 915.944,1934.84 920.03,1934.76L925.083,1934.61L925.083,1932.86C925.083,1930.33 924.571,1928.43 923.545,1927.14C922.52,1925.86 920.868,1925.21 918.589,1925.21C916.131,1925.21 913.584,1925.9 910.947,1927.26L910.044,1925.16C912.958,1923.8 915.838,1923.11 918.687,1923.11C921.6,1923.11 923.777,1923.87 925.217,1925.38C926.658,1926.9 927.378,1929.26 927.378,1932.47L927.378,1950.12L925.596,1950.12ZM915.83,1948.41C918.662,1948.41 920.896,1947.6 922.532,1945.98C924.168,1944.36 924.986,1942.11 924.986,1939.23L924.986,1936.62L920.347,1936.81C916.62,1936.99 913.963,1937.57 912.376,1938.56C910.789,1939.54 909.995,1941.08 909.995,1943.16C909.995,1944.82 910.504,1946.11 911.521,1947.03C912.538,1947.95 913.975,1948.41 915.83,1948.41Z" style="fill:white;fill-rule:nonzero;"/>
        <rect x="935.972" y="1912.13" width="2.417" height="37.988" style="fill:white;fill-rule:nonzero;"/>
        <path d="M970.176,1950.12L967.661,1950.12L967.661,1916.77L956.065,1916.77L956.065,1914.42L981.773,1914.42L981.773,1916.77L970.176,1916.77L970.176,1950.12Z" style="fill:white;fill-rule:nonzero;"/>
        <path d="M994.419,1923.07C995.542,1923.07 996.747,1923.18 998.032,1923.41L997.569,1925.73C996.462,1925.45 995.314,1925.31 994.126,1925.31C991.864,1925.31 990.008,1926.27 988.56,1928.19C987.111,1930.11 986.387,1932.54 986.387,1935.47L986.387,1950.12L983.97,1950.12L983.97,1923.58L986.021,1923.58L986.265,1928.36L986.436,1928.36C987.526,1926.41 988.69,1925.04 989.927,1924.25C991.164,1923.46 992.661,1923.07 994.419,1923.07Z" style="fill:white;fill-rule:nonzero;"/>
        <path d="M1018.54,1950.12L1017.93,1945.92L1017.74,1945.92C1016.4,1947.63 1015.03,1948.83 1013.62,1949.54C1012.21,1950.25 1010.55,1950.6 1008.63,1950.6C1006.02,1950.6 1004,1949.94 1002.55,1948.6C1001.1,1947.27 1000.38,1945.42 1000.38,1943.06C1000.38,1940.47 1001.45,1938.46 1003.61,1937.03C1005.77,1935.6 1008.89,1934.84 1012.97,1934.76L1018.03,1934.61L1018.03,1932.86C1018.03,1930.33 1017.51,1928.43 1016.49,1927.14C1015.46,1925.86 1013.81,1925.21 1011.53,1925.21C1009.08,1925.21 1006.53,1925.9 1003.89,1927.26L1002.99,1925.16C1005.9,1923.8 1008.78,1923.11 1011.63,1923.11C1014.54,1923.11 1016.72,1923.87 1018.16,1925.38C1019.6,1926.9 1020.32,1929.26 1020.32,1932.47L1020.32,1950.12L1018.54,1950.12ZM1008.77,1948.41C1011.61,1948.41 1013.84,1947.6 1015.48,1945.98C1017.11,1944.36 1017.93,1942.11 1017.93,1939.23L1017.93,1936.62L1013.29,1936.81C1009.56,1936.99 1006.91,1937.57 1005.32,1938.56C1003.73,1939.54 1002.94,1941.08 1002.94,1943.16C1002.94,1944.82 1003.45,1946.11 1004.47,1947.03C1005.48,1947.95 1006.92,1948.41 1008.77,1948.41Z" style="fill:white;fill-rule:nonzero;"/>
        <path d="M1047.42,1950.12L1047.42,1932.9C1047.42,1930.24 1046.86,1928.29 1045.74,1927.08C1044.61,1925.87 1042.87,1925.26 1040.51,1925.26C1037.34,1925.26 1035.02,1926.06 1033.54,1927.67C1032.07,1929.27 1031.33,1931.87 1031.33,1935.47L1031.33,1950.12L1028.92,1950.12L1028.92,1923.58L1030.97,1923.58L1031.43,1927.22L1031.58,1927.22C1033.3,1924.45 1036.37,1923.07 1040.78,1923.07C1046.8,1923.07 1049.82,1926.3 1049.82,1932.76L1049.82,1950.12L1047.42,1950.12Z" style="fill:white;fill-rule:nonzero;"/>
        <path d="M1074.86,1943.21C1074.86,1945.58 1073.96,1947.41 1072.15,1948.69C1070.35,1949.97 1067.78,1950.6 1064.46,1950.6C1060.91,1950.6 1058.1,1950.06 1056.02,1948.97L1056.02,1946.36C1058.68,1947.69 1061.5,1948.36 1064.46,1948.36C1067.08,1948.36 1069.07,1947.92 1070.43,1947.05C1071.79,1946.18 1072.47,1945.02 1072.47,1943.57C1072.47,1942.24 1071.93,1941.12 1070.85,1940.2C1069.77,1939.29 1067.99,1938.4 1065.51,1937.52C1062.86,1936.56 1061,1935.73 1059.92,1935.04C1058.85,1934.35 1058.04,1933.57 1057.49,1932.7C1056.95,1931.83 1056.67,1930.76 1056.67,1929.51C1056.67,1927.53 1057.51,1925.95 1059.18,1924.8C1060.85,1923.64 1063.18,1923.07 1066.17,1923.07C1069.04,1923.07 1071.76,1923.6 1074.33,1924.68L1073.42,1926.87C1070.82,1925.8 1068.4,1925.26 1066.17,1925.26C1064.01,1925.26 1062.29,1925.62 1061.02,1926.34C1059.75,1927.05 1059.12,1928.05 1059.12,1929.32C1059.12,1930.7 1059.61,1931.81 1060.59,1932.63C1061.58,1933.47 1063.5,1934.39 1066.37,1935.42C1068.76,1936.28 1070.5,1937.06 1071.59,1937.75C1072.68,1938.44 1073.5,1939.23 1074.05,1940.11C1074.59,1940.99 1074.86,1942.02 1074.86,1943.21Z" style="fill:white;fill-rule:nonzero;"/>
        <rect x="1081.7" y="1912.13" width="2.417" height="37.988" style="fill:white;fill-rule:nonzero;"/>
        <path d="M1109.12,1950.12L1108.51,1945.92L1108.31,1945.92C1106.98,1947.63 1105.61,1948.83 1104.2,1949.54C1102.79,1950.25 1101.13,1950.6 1099.2,1950.6C1096.6,1950.6 1094.57,1949.94 1093.13,1948.6C1091.68,1947.27 1090.95,1945.42 1090.95,1943.06C1090.95,1940.47 1092.03,1938.46 1094.19,1937.03C1096.34,1935.6 1099.46,1934.84 1103.55,1934.76L1108.6,1934.61L1108.6,1932.86C1108.6,1930.33 1108.09,1928.43 1107.07,1927.14C1106.04,1925.86 1104.39,1925.21 1102.11,1925.21C1099.65,1925.21 1097.11,1925.9 1094.47,1927.26L1093.57,1925.16C1096.48,1923.8 1099.36,1923.11 1102.21,1923.11C1105.12,1923.11 1107.3,1923.87 1108.74,1925.38C1110.18,1926.9 1110.9,1929.26 1110.9,1932.47L1110.9,1950.12L1109.12,1950.12ZM1099.35,1948.41C1102.18,1948.41 1104.42,1947.6 1106.05,1945.98C1107.69,1944.36 1108.51,1942.11 1108.51,1939.23L1108.51,1936.62L1103.87,1936.81C1100.14,1936.99 1097.48,1937.57 1095.9,1938.56C1094.31,1939.54 1093.52,1941.08 1093.52,1943.16C1093.52,1944.82 1094.02,1946.11 1095.04,1947.03C1096.06,1947.95 1097.5,1948.41 1099.35,1948.41Z" style="fill:white;fill-rule:nonzero;"/>
        <path d="M1126.5,1948.46C1128.03,1948.46 1129.36,1948.33 1130.5,1948.07L1130.5,1950.02C1129.33,1950.41 1127.98,1950.6 1126.45,1950.6C1124.11,1950.6 1122.38,1949.98 1121.26,1948.72C1120.15,1947.47 1119.59,1945.5 1119.59,1942.82L1119.59,1925.68L1115.66,1925.68L1115.66,1924.26L1119.59,1923.16L1120.81,1917.16L1122.06,1917.16L1122.06,1923.58L1129.84,1923.58L1129.84,1925.68L1122.06,1925.68L1122.06,1942.47C1122.06,1944.51 1122.41,1946.01 1123.13,1946.99C1123.85,1947.97 1124.97,1948.46 1126.5,1948.46Z" style="fill:white;fill-rule:nonzero;"/>
        <path d="M1138.66,1950.12L1136.24,1950.12L1136.24,1923.58L1138.66,1923.58L1138.66,1950.12ZM1135.9,1916.2C1135.9,1914.64 1136.41,1913.86 1137.44,1913.86C1137.94,1913.86 1138.34,1914.07 1138.62,1914.47C1138.91,1914.88 1139.05,1915.46 1139.05,1916.2C1139.05,1916.94 1138.91,1917.52 1138.62,1917.94C1138.34,1918.36 1137.94,1918.57 1137.44,1918.57C1136.41,1918.57 1135.9,1917.78 1135.9,1916.2Z" style="fill:white;fill-rule:nonzero;"/>
        <path d="M1169.49,1936.81C1169.49,1941.14 1168.44,1944.52 1166.34,1946.95C1164.24,1949.39 1161.35,1950.6 1157.65,1950.6C1155.32,1950.6 1153.27,1950.04 1151.5,1948.92C1149.73,1947.8 1148.37,1946.18 1147.42,1944.09C1146.48,1941.99 1146.01,1939.56 1146.01,1936.81C1146.01,1932.48 1147.06,1929.11 1149.15,1926.69C1151.26,1924.27 1154.14,1923.07 1157.8,1923.07C1161.44,1923.07 1164.3,1924.29 1166.38,1926.74C1168.45,1929.19 1169.49,1932.55 1169.49,1936.81ZM1148.55,1936.81C1148.55,1940.46 1149.35,1943.3 1150.95,1945.34C1152.55,1947.39 1154.82,1948.41 1157.75,1948.41C1160.68,1948.41 1162.94,1947.39 1164.55,1945.34C1166.15,1943.3 1166.95,1940.46 1166.95,1936.81C1166.95,1933.15 1166.14,1930.31 1164.52,1928.29C1162.9,1926.27 1160.63,1925.26 1157.7,1925.26C1154.77,1925.26 1152.51,1926.27 1150.93,1928.28C1149.34,1930.29 1148.55,1933.13 1148.55,1936.81Z" style="fill:white;fill-rule:nonzero;"/>
        <path d="M1195.35,1950.12L1195.35,1932.9C1195.35,1930.24 1194.79,1928.29 1193.66,1927.08C1192.54,1925.87 1190.8,1925.26 1188.44,1925.26C1185.26,1925.26 1182.94,1926.06 1181.47,1927.67C1180,1929.27 1179.26,1931.87 1179.26,1935.47L1179.26,1950.12L1176.84,1950.12L1176.84,1923.58L1178.89,1923.58L1179.36,1927.22L1179.5,1927.22C1181.23,1924.45 1184.3,1923.07 1188.71,1923.07C1194.73,1923.07 1197.74,1926.3 1197.74,1932.76L1197.74,1950.12L1195.35,1950.12Z" style="fill:white;fill-rule:nonzero;"/>
        <path d="M1239.63,1940.91C1239.63,1943.89 1238.54,1946.25 1236.35,1947.99C1234.16,1949.73 1231.25,1950.6 1227.62,1950.6C1223.26,1950.6 1219.92,1950.12 1217.59,1949.16L1217.59,1946.67C1220.16,1947.76 1223.44,1948.31 1227.43,1948.31C1230.36,1948.31 1232.68,1947.64 1234.4,1946.3C1236.11,1944.95 1236.97,1943.19 1236.97,1941.01C1236.97,1939.66 1236.69,1938.54 1236.12,1937.65C1235.55,1936.77 1234.62,1935.96 1233.34,1935.22C1232.05,1934.49 1230.16,1933.7 1227.67,1932.86C1224.03,1931.6 1221.51,1930.25 1220.12,1928.79C1218.72,1927.33 1218.03,1925.39 1218.03,1922.97C1218.03,1920.3 1219.07,1918.12 1221.16,1916.44C1223.26,1914.75 1225.95,1913.91 1229.23,1913.91C1232.59,1913.91 1235.74,1914.55 1238.68,1915.81L1237.78,1917.96C1234.82,1916.73 1231.98,1916.11 1229.28,1916.11C1226.65,1916.11 1224.55,1916.72 1222.98,1917.94C1221.42,1919.16 1220.64,1920.82 1220.64,1922.92C1220.64,1924.24 1220.88,1925.32 1221.36,1926.17C1221.84,1927.01 1222.63,1927.77 1223.72,1928.45C1224.81,1929.12 1226.68,1929.93 1229.33,1930.88C1232.11,1931.84 1234.21,1932.77 1235.61,1933.67C1237.01,1934.58 1238.03,1935.6 1238.67,1936.75C1239.31,1937.9 1239.63,1939.28 1239.63,1940.91Z" style="fill:white;fill-rule:nonzero;"/>
        <path d="M1257.29,1950.6C1253.43,1950.6 1250.42,1949.42 1248.26,1947.04C1246.11,1944.66 1245.03,1941.34 1245.03,1937.05C1245.03,1932.82 1246.07,1929.43 1248.15,1926.89C1250.24,1924.34 1253.05,1923.07 1256.58,1923.07C1259.7,1923.07 1262.17,1924.16 1263.98,1926.34C1265.78,1928.52 1266.68,1931.48 1266.68,1935.22L1266.68,1937.18L1247.57,1937.18C1247.6,1940.82 1248.45,1943.61 1250.12,1945.53C1251.79,1947.45 1254.18,1948.41 1257.29,1948.41C1258.8,1948.41 1260.13,1948.3 1261.28,1948.09C1262.42,1947.88 1263.88,1947.42 1265.63,1946.72L1265.63,1948.92C1264.14,1949.57 1262.75,1950.01 1261.49,1950.25C1260.21,1950.49 1258.82,1950.6 1257.29,1950.6ZM1256.58,1925.21C1254.02,1925.21 1251.97,1926.06 1250.42,1927.74C1248.88,1929.42 1247.98,1931.85 1247.71,1935.03L1264.12,1935.03C1264.12,1931.95 1263.45,1929.55 1262.12,1927.81C1260.79,1926.08 1258.94,1925.21 1256.58,1925.21Z" style="fill:white;fill-rule:nonzero;"/>
        <path d="M1284.46,1923.07C1285.58,1923.07 1286.79,1923.18 1288.07,1923.41L1287.61,1925.73C1286.5,1925.45 1285.35,1925.31 1284.16,1925.31C1281.9,1925.31 1280.05,1926.27 1278.6,1928.19C1277.15,1930.11 1276.43,1932.54 1276.43,1935.47L1276.43,1950.12L1274.01,1950.12L1274.01,1923.58L1276.06,1923.58L1276.3,1928.36L1276.48,1928.36C1277.57,1926.41 1278.73,1925.04 1279.97,1924.25C1281.2,1923.46 1282.7,1923.07 1284.46,1923.07Z" style="fill:white;fill-rule:nonzero;"/>
        <path d="M1299.28,1950.12L1289.02,1923.58L1291.51,1923.58L1298.37,1941.62C1299.29,1943.93 1299.97,1945.95 1300.42,1947.67L1300.57,1947.67C1301.24,1945.46 1301.92,1943.43 1302.62,1941.57L1309.48,1923.58L1311.97,1923.58L1301.72,1950.12L1299.28,1950.12Z" style="fill:white;fill-rule:nonzero;"/>
        <path d="M1318.83,1950.12L1316.42,1950.12L1316.42,1923.58L1318.83,1923.58L1318.83,1950.12ZM1316.07,1916.2C1316.07,1914.64 1316.59,1913.86 1317.61,1913.86C1318.12,1913.86 1318.51,1914.07 1318.8,1914.47C1319.08,1914.88 1319.22,1915.46 1319.22,1916.2C1319.22,1916.94 1319.08,1917.52 1318.8,1917.94C1318.51,1918.36 1318.12,1918.57 1317.61,1918.57C1316.59,1918.57 1316.07,1917.78 1316.07,1916.2Z" style="fill:white;fill-rule:nonzero;"/>
        <path d="M1338.32,1950.6C1334.52,1950.6 1331.55,1949.41 1329.4,1947.02C1327.26,1944.62 1326.18,1941.29 1326.18,1937.01C1326.18,1932.61 1327.3,1929.19 1329.53,1926.74C1331.76,1924.29 1334.81,1923.07 1338.68,1923.07C1340.98,1923.07 1343.17,1923.46 1345.27,1924.26L1344.61,1926.41C1342.32,1925.64 1340.33,1925.26 1338.63,1925.26C1335.38,1925.26 1332.91,1926.27 1331.24,1928.28C1329.56,1930.29 1328.72,1933.18 1328.72,1936.96C1328.72,1940.54 1329.56,1943.34 1331.24,1945.37C1332.91,1947.39 1335.26,1948.41 1338.27,1948.41C1340.68,1948.41 1342.91,1947.98 1344.98,1947.11L1344.98,1949.36C1343.29,1950.19 1341.07,1950.6 1338.32,1950.6Z" style="fill:white;fill-rule:nonzero;"/>
        <path d="M1362.19,1950.6C1358.34,1950.6 1355.33,1949.42 1353.17,1947.04C1351.02,1944.66 1349.94,1941.34 1349.94,1937.05C1349.94,1932.82 1350.98,1929.43 1353.06,1926.89C1355.14,1924.34 1357.95,1923.07 1361.49,1923.07C1364.61,1923.07 1367.08,1924.16 1368.88,1926.34C1370.69,1928.52 1371.59,1931.48 1371.59,1935.22L1371.59,1937.18L1352.48,1937.18C1352.51,1940.82 1353.36,1943.61 1355.03,1945.53C1356.69,1947.45 1359.08,1948.41 1362.19,1948.41C1363.71,1948.41 1365.04,1948.3 1366.18,1948.09C1367.33,1947.88 1368.78,1947.42 1370.54,1946.72L1370.54,1948.92C1369.05,1949.57 1367.66,1950.01 1366.39,1950.25C1365.12,1950.49 1363.72,1950.6 1362.19,1950.6ZM1361.49,1925.21C1358.93,1925.21 1356.88,1926.06 1355.33,1927.74C1353.79,1929.42 1352.88,1931.85 1352.62,1935.03L1369.03,1935.03C1369.03,1931.95 1368.36,1929.55 1367.03,1927.81C1365.69,1926.08 1363.85,1925.21 1361.49,1925.21Z" style="fill:white;fill-rule:nonzero;"/>
        <path d="M1395.37,1943.21C1395.37,1945.58 1394.47,1947.41 1392.66,1948.69C1390.86,1949.97 1388.29,1950.6 1384.97,1950.6C1381.42,1950.6 1378.61,1950.06 1376.52,1948.97L1376.52,1946.36C1379.19,1947.69 1382.01,1948.36 1384.97,1948.36C1387.59,1948.36 1389.58,1947.92 1390.94,1947.05C1392.3,1946.18 1392.98,1945.02 1392.98,1943.57C1392.98,1942.24 1392.44,1941.12 1391.36,1940.2C1390.27,1939.29 1388.5,1938.4 1386.02,1937.52C1383.37,1936.56 1381.5,1935.73 1380.43,1935.04C1379.36,1934.35 1378.55,1933.57 1378,1932.7C1377.45,1931.83 1377.18,1930.76 1377.18,1929.51C1377.18,1927.53 1378.02,1925.95 1379.68,1924.8C1381.35,1923.64 1383.68,1923.07 1386.68,1923.07C1389.54,1923.07 1392.26,1923.6 1394.83,1924.68L1393.93,1926.87C1391.33,1925.8 1388.91,1925.26 1386.68,1925.26C1384.52,1925.26 1382.8,1925.62 1381.53,1926.34C1380.26,1927.05 1379.62,1928.05 1379.62,1929.32C1379.62,1930.7 1380.12,1931.81 1381.1,1932.63C1382.09,1933.47 1384.01,1934.39 1386.88,1935.42C1389.27,1936.28 1391.01,1937.06 1392.1,1937.75C1393.19,1938.44 1394.01,1939.23 1394.55,1940.11C1395.1,1940.99 1395.37,1942.02 1395.37,1943.21Z" style="fill:white;fill-rule:nonzero;"/>
        <path d="M546.519,2000.12L544.029,2000.12L544.029,1964.42L563.584,1964.42L563.584,1966.72L546.519,1966.72L546.519,1981.85L562.632,1981.85L562.632,1984.17L546.519,1984.17L546.519,2000.12Z" style="fill:white;fill-rule:nonzero;"/>
        <path d="M578.965,1973.07C580.088,1973.07 581.293,1973.18 582.578,1973.41L582.114,1975.73C581.008,1975.45 579.86,1975.31 578.672,1975.31C576.41,1975.31 574.554,1976.27 573.106,1978.19C571.657,1980.11 570.933,1982.54 570.933,1985.47L570.933,2000.12L568.516,2000.12L568.516,1973.58L570.567,1973.58L570.811,1978.36L570.982,1978.36C572.072,1976.41 573.236,1975.04 574.473,1974.25C575.71,1973.46 577.207,1973.07 578.965,1973.07Z" style="fill:white;fill-rule:nonzero;"/>
        <path d="M597.691,2000.6C593.833,2000.6 590.826,1999.42 588.67,1997.04C586.513,1994.66 585.435,1991.34 585.435,1987.05C585.435,1982.82 586.476,1979.43 588.56,1976.89C590.643,1974.34 593.451,1973.07 596.983,1973.07C600.108,1973.07 602.573,1974.16 604.38,1976.34C606.187,1978.52 607.09,1981.48 607.09,1985.22L607.09,1987.18L587.974,1987.18C588.006,1990.82 588.857,1993.61 590.525,1995.53C592.193,1997.45 594.582,1998.41 597.691,1998.41C599.204,1998.41 600.535,1998.3 601.682,1998.09C602.83,1997.88 604.282,1997.42 606.04,1996.72L606.04,1998.92C604.543,1999.57 603.159,2000.01 601.89,2000.25C600.62,2000.49 599.221,2000.6 597.691,2000.6ZM596.983,1975.21C594.427,1975.21 592.377,1976.06 590.83,1977.74C589.284,1979.42 588.381,1981.85 588.12,1985.03L604.527,1985.03C604.527,1981.95 603.859,1979.55 602.525,1977.81C601.19,1976.08 599.343,1975.21 596.983,1975.21Z" style="fill:white;fill-rule:nonzero;"/>
        <path d="M632.92,2000.12L632.92,1982.9C632.92,1980.24 632.359,1978.29 631.236,1977.08C630.113,1975.87 628.371,1975.26 626.011,1975.26C622.837,1975.26 620.514,1976.06 619.041,1977.67C617.568,1979.27 616.831,1981.87 616.831,1985.47L616.831,2000.12L614.414,2000.12L614.414,1973.58L616.465,1973.58L616.929,1977.22L617.075,1977.22C618.801,1974.45 621.869,1973.07 626.28,1973.07C632.302,1973.07 635.313,1976.3 635.313,1982.76L635.313,2000.12L632.92,2000.12Z" style="fill:white;fill-rule:nonzero;"/>
        <path d="M654.502,2000.6C650.71,2000.6 647.739,1999.41 645.591,1997.02C643.443,1994.62 642.368,1991.29 642.368,1987.01C642.368,1982.61 643.483,1979.19 645.713,1976.74C647.943,1974.29 650.995,1973.07 654.868,1973.07C657.163,1973.07 659.361,1973.46 661.46,1974.26L660.801,1976.41C658.506,1975.64 656.512,1975.26 654.82,1975.26C651.564,1975.26 649.099,1976.27 647.422,1978.28C645.746,1980.29 644.907,1983.18 644.907,1986.96C644.907,1990.54 645.746,1993.34 647.422,1995.37C649.099,1997.39 651.442,1998.41 654.453,1998.41C656.862,1998.41 659.1,1997.98 661.167,1997.11L661.167,1999.36C659.474,2000.19 657.253,2000.6 654.502,2000.6Z" style="fill:white;fill-rule:nonzero;"/>
        <path d="M686.167,2000.12L686.167,1982.9C686.167,1980.24 685.606,1978.29 684.483,1977.08C683.36,1975.87 681.618,1975.26 679.258,1975.26C676.084,1975.26 673.761,1976.06 672.288,1977.67C670.815,1979.27 670.078,1981.87 670.078,1985.47L670.078,2000.12L667.661,2000.12L667.661,1962.13L670.078,1962.13L670.078,1974.21L669.956,1977.61L670.127,1977.61C671.12,1976.01 672.373,1974.86 673.887,1974.14C675.401,1973.42 677.28,1973.07 679.527,1973.07C685.549,1973.07 688.56,1976.3 688.56,1982.76L688.56,2000.12L686.167,2000.12Z" style="fill:white;fill-rule:nonzero;"/>
        <path d="M699.912,1994.31L700.205,1994.82C698.985,1999.13 697.569,2003.05 695.957,2006.56L694.37,2006.56C695.624,2002.09 696.519,1998 697.056,1994.31L699.912,1994.31Z" style="fill:white;fill-rule:nonzero;"/>
        <path d="M735.532,1982.12L748.692,1982.12L748.692,1998.41C745.241,1999.87 741.359,2000.6 737.046,2000.6C731.415,2000.6 727.097,1999.01 724.094,1995.83C721.092,1992.65 719.59,1988.14 719.59,1982.32C719.59,1978.69 720.335,1975.47 721.824,1972.66C723.313,1969.86 725.445,1967.69 728.22,1966.16C730.995,1964.63 734.182,1963.86 737.779,1963.86C741.669,1963.86 745.16,1964.58 748.252,1966.01L747.251,1968.26C744.159,1966.82 740.952,1966.11 737.632,1966.11C732.928,1966.11 729.197,1967.56 726.438,1970.47C723.679,1973.37 722.3,1977.29 722.3,1982.22C722.3,1987.59 723.61,1991.63 726.231,1994.34C728.851,1997.05 732.7,1998.41 737.779,1998.41C741.066,1998.41 743.858,1997.94 746.153,1997.02L746.153,1984.47L735.532,1984.47L735.532,1982.12Z" style="fill:white;fill-rule:nonzero;"/>
        <path d="M767.49,1973.07C768.613,1973.07 769.818,1973.18 771.104,1973.41L770.64,1975.73C769.533,1975.45 768.386,1975.31 767.197,1975.31C764.935,1975.31 763.08,1976.27 761.631,1978.19C760.182,1980.11 759.458,1982.54 759.458,1985.47L759.458,2000.12L757.041,2000.12L757.041,1973.58L759.092,1973.58L759.336,1978.36L759.507,1978.36C760.598,1976.41 761.761,1975.04 762.998,1974.25C764.235,1973.46 765.733,1973.07 767.49,1973.07Z" style="fill:white;fill-rule:nonzero;"/>
        <path d="M786.216,2000.6C782.359,2000.6 779.352,1999.42 777.195,1997.04C775.038,1994.66 773.96,1991.34 773.96,1987.05C773.96,1982.82 775.002,1979.43 777.085,1976.89C779.169,1974.34 781.976,1973.07 785.508,1973.07C788.633,1973.07 791.099,1974.16 792.905,1976.34C794.712,1978.52 795.615,1981.48 795.615,1985.22L795.615,1987.18L776.499,1987.18C776.532,1990.82 777.382,1993.61 779.051,1995.53C780.719,1997.45 783.107,1998.41 786.216,1998.41C787.73,1998.41 789.06,1998.3 790.208,1998.09C791.355,1997.88 792.808,1997.42 794.566,1996.72L794.566,1998.92C793.068,1999.57 791.685,2000.01 790.415,2000.25C789.146,2000.49 787.746,2000.6 786.216,2000.6ZM785.508,1975.21C782.953,1975.21 780.902,1976.06 779.356,1977.74C777.809,1979.42 776.906,1981.85 776.646,1985.03L793.052,1985.03C793.052,1981.95 792.385,1979.55 791.05,1977.81C789.715,1976.08 787.868,1975.21 785.508,1975.21Z" style="fill:white;fill-rule:nonzero;"/>
        <path d="M813.657,2000.6C809.8,2000.6 806.793,1999.42 804.636,1997.04C802.48,1994.66 801.402,1991.34 801.402,1987.05C801.402,1982.82 802.443,1979.43 804.527,1976.89C806.61,1974.34 809.418,1973.07 812.949,1973.07C816.074,1973.07 818.54,1974.16 820.347,1976.34C822.154,1978.52 823.057,1981.48 823.057,1985.22L823.057,1987.18L803.941,1987.18C803.973,1990.82 804.824,1993.61 806.492,1995.53C808.16,1997.45 810.549,1998.41 813.657,1998.41C815.171,1998.41 816.502,1998.3 817.649,1998.09C818.797,1997.88 820.249,1997.42 822.007,1996.72L822.007,1998.92C820.51,1999.57 819.126,2000.01 817.857,2000.25C816.587,2000.49 815.187,2000.6 813.657,2000.6ZM812.949,1975.21C810.394,1975.21 808.343,1976.06 806.797,1977.74C805.251,1979.42 804.348,1981.85 804.087,1985.03L820.493,1985.03C820.493,1981.95 819.826,1979.55 818.491,1977.81C817.157,1976.08 815.309,1975.21 812.949,1975.21Z" style="fill:white;fill-rule:nonzero;"/>
        <path d="M832.749,1988.47L846.299,1973.58L849.229,1973.58L838.78,1984.91L850.132,2000.12L847.227,2000.12L837.144,1986.71L832.798,1990.67L832.798,2000.12L830.381,2000.12L830.381,1962.13L832.798,1962.13L832.798,1981.17L832.627,1988.47L832.749,1988.47Z" style="fill:white;fill-rule:nonzero;"/>
        <path d="M857.334,1994.31L857.627,1994.82C856.406,1999.13 854.99,2003.05 853.379,2006.56L851.792,2006.56C853.045,2002.09 853.941,1998 854.478,1994.31L857.334,1994.31Z" style="fill:white;fill-rule:nonzero;"/>
        <rect x="878.916" y="1964.42" width="2.49" height="35.693" style="fill:white;fill-rule:nonzero;"/>
        <path d="M897.91,1998.46C899.44,1998.46 900.775,1998.33 901.914,1998.07L901.914,2000.02C900.742,2000.41 899.391,2000.6 897.862,2000.6C895.518,2000.6 893.788,1999.98 892.674,1998.72C891.559,1997.47 891.001,1995.5 891.001,1992.82L891.001,1975.68L887.071,1975.68L887.071,1974.26L891.001,1973.16L892.222,1967.16L893.467,1967.16L893.467,1973.58L901.255,1973.58L901.255,1975.68L893.467,1975.68L893.467,1992.47C893.467,1994.51 893.825,1996.01 894.541,1996.99C895.257,1997.97 896.38,1998.46 897.91,1998.46Z" style="fill:white;fill-rule:nonzero;"/>
        <path d="M923.765,2000.12L923.155,1995.92L922.959,1995.92C921.625,1997.63 920.253,1998.83 918.845,1999.54C917.438,2000.25 915.773,2000.6 913.853,2000.6C911.249,2000.6 909.222,1999.94 907.774,1998.6C906.325,1997.27 905.601,1995.42 905.601,1993.06C905.601,1990.47 906.679,1988.46 908.836,1987.03C910.992,1985.6 914.113,1984.84 918.198,1984.76L923.252,1984.61L923.252,1982.86C923.252,1980.33 922.739,1978.43 921.714,1977.14C920.689,1975.86 919.037,1975.21 916.758,1975.21C914.3,1975.21 911.753,1975.9 909.116,1977.26L908.213,1975.16C911.127,1973.8 914.007,1973.11 916.856,1973.11C919.769,1973.11 921.946,1973.87 923.386,1975.38C924.827,1976.9 925.547,1979.26 925.547,1982.47L925.547,2000.12L923.765,2000.12ZM913.999,1998.41C916.831,1998.41 919.065,1997.6 920.701,1995.98C922.337,1994.36 923.155,1992.11 923.155,1989.23L923.155,1986.62L918.516,1986.81C914.789,1986.99 912.132,1987.57 910.545,1988.56C908.958,1989.54 908.164,1991.08 908.164,1993.16C908.164,1994.82 908.673,1996.11 909.69,1997.03C910.707,1997.95 912.144,1998.41 913.999,1998.41Z" style="fill:white;fill-rule:nonzero;"/>
        <rect x="934.141" y="1962.13" width="2.417" height="37.988" style="fill:white;fill-rule:nonzero;"/>
        <path d="M947.862,2000.12L945.445,2000.12L945.445,1973.58L947.862,1973.58L947.862,2000.12ZM945.103,1966.21C945.103,1964.64 945.615,1963.86 946.641,1963.86C947.145,1963.86 947.54,1964.07 947.825,1964.47C948.11,1964.88 948.252,1965.46 948.252,1966.21C948.252,1966.94 948.11,1967.52 947.825,1967.94C947.54,1968.36 947.145,1968.57 946.641,1968.57C945.615,1968.57 945.103,1967.78 945.103,1966.21Z" style="fill:white;fill-rule:nonzero;"/>
        <path d="M972.862,2000.12L972.251,1995.92L972.056,1995.92C970.721,1997.63 969.35,1998.83 967.942,1999.54C966.534,2000.25 964.87,2000.6 962.949,2000.6C960.345,2000.6 958.319,1999.94 956.87,1998.6C955.422,1997.27 954.697,1995.42 954.697,1993.06C954.697,1990.47 955.776,1988.46 957.932,1987.03C960.089,1985.6 963.21,1984.84 967.295,1984.76L972.349,1984.61L972.349,1982.86C972.349,1980.33 971.836,1978.43 970.811,1977.14C969.785,1975.86 968.133,1975.21 965.855,1975.21C963.397,1975.21 960.85,1975.9 958.213,1977.26L957.31,1975.16C960.223,1973.8 963.104,1973.11 965.952,1973.11C968.866,1973.11 971.043,1973.87 972.483,1975.38C973.924,1976.9 974.644,1979.26 974.644,1982.47L974.644,2000.12L972.862,2000.12ZM963.096,1998.41C965.928,1998.41 968.162,1997.6 969.798,1995.98C971.433,1994.36 972.251,1992.11 972.251,1989.23L972.251,1986.62L967.613,1986.81C963.885,1986.99 961.228,1987.57 959.641,1988.56C958.054,1989.54 957.261,1991.08 957.261,1993.16C957.261,1994.82 957.77,1996.11 958.787,1997.03C959.804,1997.95 961.24,1998.41 963.096,1998.41Z" style="fill:white;fill-rule:nonzero;"/>
        <path d="M1001.74,2000.12L1001.74,1982.9C1001.74,1980.24 1001.18,1978.29 1000.06,1977.08C998.936,1975.87 997.194,1975.26 994.834,1975.26C991.66,1975.26 989.337,1976.06 987.864,1977.67C986.391,1979.27 985.655,1981.87 985.655,1985.47L985.655,2000.12L983.238,2000.12L983.238,1973.58L985.288,1973.58L985.752,1977.22L985.899,1977.22C987.624,1974.45 990.692,1973.07 995.103,1973.07C1001.13,1973.07 1004.14,1976.3 1004.14,1982.76L1004.14,2000.12L1001.74,2000.12Z" style="fill:white;fill-rule:nonzero;"/>
        <path d="M1041.83,2000.12L1041.22,1995.92L1041.03,1995.92C1039.69,1997.63 1038.32,1998.83 1036.91,1999.54C1035.5,2000.25 1033.84,2000.6 1031.92,2000.6C1029.32,2000.6 1027.29,1999.94 1025.84,1998.6C1024.39,1997.27 1023.67,1995.42 1023.67,1993.06C1023.67,1990.47 1024.75,1988.46 1026.9,1987.03C1029.06,1985.6 1032.18,1984.84 1036.27,1984.76L1041.32,1984.61L1041.32,1982.86C1041.32,1980.33 1040.81,1978.43 1039.78,1977.14C1038.76,1975.86 1037.1,1975.21 1034.82,1975.21C1032.37,1975.21 1029.82,1975.9 1027.18,1977.26L1026.28,1975.16C1029.19,1973.8 1032.07,1973.11 1034.92,1973.11C1037.84,1973.11 1040.01,1973.87 1041.45,1975.38C1042.89,1976.9 1043.61,1979.26 1043.61,1982.47L1043.61,2000.12L1041.83,2000.12ZM1032.07,1998.41C1034.9,1998.41 1037.13,1997.6 1038.77,1995.98C1040.4,1994.36 1041.22,1992.11 1041.22,1989.23L1041.22,1986.62L1036.58,1986.81C1032.86,1986.99 1030.2,1987.57 1028.61,1988.56C1027.02,1989.54 1026.23,1991.08 1026.23,1993.16C1026.23,1994.82 1026.74,1996.11 1027.76,1997.03C1028.77,1997.95 1030.21,1998.41 1032.07,1998.41Z" style="fill:white;fill-rule:nonzero;"/>
        <path d="M1070.71,2000.12L1070.71,1982.9C1070.71,1980.24 1070.15,1978.29 1069.03,1977.08C1067.9,1975.87 1066.16,1975.26 1063.8,1975.26C1060.63,1975.26 1058.31,1976.06 1056.83,1977.67C1055.36,1979.27 1054.62,1981.87 1054.62,1985.47L1054.62,2000.12L1052.21,2000.12L1052.21,1973.58L1054.26,1973.58L1054.72,1977.22L1054.87,1977.22C1056.59,1974.45 1059.66,1973.07 1064.07,1973.07C1070.1,1973.07 1073.11,1976.3 1073.11,1982.76L1073.11,2000.12L1070.71,2000.12Z" style="fill:white;fill-rule:nonzero;"/>
        <path d="M1091.42,1973.07C1093.34,1973.07 1095,1973.41 1096.4,1974.12C1097.8,1974.82 1099.05,1976.01 1100.16,1977.7L1100.3,1977.7C1100.2,1975.65 1100.16,1973.64 1100.16,1971.67L1100.16,1962.13L1102.55,1962.13L1102.55,2000.12L1100.96,2000.12L1100.35,1996.06L1100.16,1996.06C1098.14,1999.09 1095.24,2000.6 1091.46,2000.6C1087.8,2000.6 1085,1999.47 1083.07,1997.19C1081.13,1994.91 1080.16,1991.59 1080.16,1987.23C1080.16,1982.63 1081.12,1979.13 1083.04,1976.7C1084.96,1974.28 1087.75,1973.07 1091.42,1973.07ZM1091.42,1975.26C1088.52,1975.26 1086.34,1976.28 1084.88,1978.31C1083.43,1980.35 1082.7,1983.3 1082.7,1987.18C1082.7,1994.7 1085.62,1998.46 1091.46,1998.46C1094.46,1998.46 1096.66,1997.59 1098.06,1995.84C1099.46,1994.1 1100.16,1991.23 1100.16,1987.23L1100.16,1986.81C1100.16,1982.71 1099.47,1979.76 1098.09,1977.96C1096.72,1976.16 1094.49,1975.26 1091.42,1975.26Z" style="fill:white;fill-rule:nonzero;"/>
        <path d="M1144.76,1990.91C1144.76,1993.89 1143.67,1996.25 1141.48,1997.99C1139.29,1999.73 1136.38,2000.6 1132.75,2000.6C1128.39,2000.6 1125.04,2000.12 1122.71,1999.16L1122.71,1996.67C1125.29,1997.76 1128.57,1998.31 1132.55,1998.31C1135.48,1998.31 1137.81,1997.64 1139.52,1996.3C1141.24,1994.95 1142.1,1993.19 1142.1,1991.01C1142.1,1989.66 1141.82,1988.54 1141.25,1987.65C1140.68,1986.77 1139.75,1985.96 1138.46,1985.22C1137.18,1984.49 1135.29,1983.7 1132.8,1982.86C1129.15,1981.6 1126.63,1980.25 1125.24,1978.79C1123.85,1977.33 1123.15,1975.39 1123.15,1972.97C1123.15,1970.3 1124.2,1968.12 1126.29,1966.44C1128.38,1964.75 1131.07,1963.91 1134.36,1963.91C1137.71,1963.91 1140.86,1964.55 1143.81,1965.81L1142.9,1967.96C1139.94,1966.73 1137.11,1966.11 1134.41,1966.11C1131.77,1966.11 1129.67,1966.72 1128.11,1967.94C1126.55,1969.16 1125.77,1970.82 1125.77,1972.92C1125.77,1974.24 1126.01,1975.32 1126.49,1976.17C1126.97,1977.01 1127.75,1977.77 1128.84,1978.45C1129.93,1979.12 1131.81,1979.93 1134.46,1980.88C1137.24,1981.84 1139.33,1982.77 1140.73,1983.67C1142.13,1984.58 1143.15,1985.6 1143.8,1986.75C1144.44,1987.9 1144.76,1989.28 1144.76,1990.91Z" style="fill:white;fill-rule:nonzero;"/>
        <path d="M1163.05,2000.6C1158.96,2000.6 1155.98,1999.07 1154.11,1996.01L1153.94,1996.01L1154.01,1998.07C1154.08,1999.27 1154.11,2000.59 1154.11,2002.02L1154.11,2012.13L1151.69,2012.13L1151.69,1973.58L1153.75,1973.58L1154.21,1977.36L1154.36,1977.36C1156.18,1974.5 1159.09,1973.07 1163.1,1973.07C1166.68,1973.07 1169.41,1974.24 1171.29,1976.59C1173.17,1978.94 1174.11,1982.37 1174.11,1986.86C1174.11,1991.22 1173.12,1994.6 1171.14,1997C1169.16,1999.4 1166.46,2000.6 1163.05,2000.6ZM1163,1998.46C1165.72,1998.46 1167.82,1997.45 1169.31,1995.43C1170.8,1993.41 1171.54,1990.59 1171.54,1986.96C1171.54,1979.16 1168.73,1975.26 1163.1,1975.26C1160,1975.26 1157.73,1976.11 1156.28,1977.81C1154.84,1979.52 1154.11,1982.29 1154.11,1986.13L1154.11,1986.91C1154.11,1991.06 1154.81,1994.02 1156.2,1995.8C1157.59,1997.57 1159.86,1998.46 1163,1998.46Z" style="fill:white;fill-rule:nonzero;"/>
        <path d="M1197.57,2000.12L1196.96,1995.92L1196.76,1995.92C1195.43,1997.63 1194.06,1998.83 1192.65,1999.54C1191.24,2000.25 1189.58,2000.6 1187.66,2000.6C1185.05,2000.6 1183.03,1999.94 1181.58,1998.6C1180.13,1997.27 1179.4,1995.42 1179.4,1993.06C1179.4,1990.47 1180.48,1988.46 1182.64,1987.03C1184.8,1985.6 1187.92,1984.84 1192,1984.76L1197.06,1984.61L1197.06,1982.86C1197.06,1980.33 1196.54,1978.43 1195.52,1977.14C1194.49,1975.86 1192.84,1975.21 1190.56,1975.21C1188.1,1975.21 1185.56,1975.9 1182.92,1977.26L1182.02,1975.16C1184.93,1973.8 1187.81,1973.11 1190.66,1973.11C1193.57,1973.11 1195.75,1973.87 1197.19,1975.38C1198.63,1976.9 1199.35,1979.26 1199.35,1982.47L1199.35,2000.12L1197.57,2000.12ZM1187.8,1998.41C1190.63,1998.41 1192.87,1997.6 1194.51,1995.98C1196.14,1994.36 1196.96,1992.11 1196.96,1989.23L1196.96,1986.62L1192.32,1986.81C1188.59,1986.99 1185.93,1987.57 1184.35,1988.56C1182.76,1989.54 1181.97,1991.08 1181.97,1993.16C1181.97,1994.82 1182.48,1996.11 1183.49,1997.03C1184.51,1997.95 1185.95,1998.41 1187.8,1998.41Z" style="fill:white;fill-rule:nonzero;"/>
        <path d="M1226.45,2000.12L1226.45,1982.9C1226.45,1980.24 1225.89,1978.29 1224.77,1977.08C1223.64,1975.87 1221.9,1975.26 1219.54,1975.26C1216.37,1975.26 1214.04,1976.06 1212.57,1977.67C1211.1,1979.27 1210.36,1981.87 1210.36,1985.47L1210.36,2000.12L1207.94,2000.12L1207.94,1973.58L1210,1973.58L1210.46,1977.22L1210.61,1977.22C1212.33,1974.45 1215.4,1973.07 1219.81,1973.07C1225.83,1973.07 1228.84,1976.3 1228.84,1982.76L1228.84,2000.12L1226.45,2000.12Z" style="fill:white;fill-rule:nonzero;"/>
        <path d="M1239.85,2000.12L1237.44,2000.12L1237.44,1973.58L1239.85,1973.58L1239.85,2000.12ZM1237.1,1966.21C1237.1,1964.64 1237.61,1963.86 1238.63,1963.86C1239.14,1963.86 1239.53,1964.07 1239.82,1964.47C1240.1,1964.88 1240.24,1965.46 1240.24,1966.21C1240.24,1966.94 1240.1,1967.52 1239.82,1967.94C1239.53,1968.36 1239.14,1968.57 1238.63,1968.57C1237.61,1968.57 1237.1,1967.78 1237.1,1966.21Z" style="fill:white;fill-rule:nonzero;"/>
        <path d="M1265.2,1993.21C1265.2,1995.58 1264.29,1997.41 1262.49,1998.69C1260.68,1999.97 1258.12,2000.6 1254.8,2000.6C1251.25,2000.6 1248.43,2000.06 1246.35,1998.97L1246.35,1996.36C1249.02,1997.69 1251.83,1998.36 1254.8,1998.36C1257.42,1998.36 1259.4,1997.92 1260.76,1997.05C1262.12,1996.18 1262.8,1995.02 1262.8,1993.57C1262.8,1992.24 1262.26,1991.12 1261.18,1990.2C1260.1,1989.29 1258.32,1988.4 1255.85,1987.52C1253.19,1986.56 1251.33,1985.73 1250.25,1985.04C1249.18,1984.35 1248.37,1983.57 1247.83,1982.7C1247.28,1981.83 1247.01,1980.76 1247.01,1979.51C1247.01,1977.53 1247.84,1975.95 1249.51,1974.8C1251.18,1973.64 1253.51,1973.07 1256.5,1973.07C1259.37,1973.07 1262.09,1973.6 1264.66,1974.68L1263.76,1976.87C1261.15,1975.8 1258.73,1975.26 1256.5,1975.26C1254.34,1975.26 1252.62,1975.62 1251.35,1976.34C1250.08,1977.05 1249.45,1978.05 1249.45,1979.32C1249.45,1980.7 1249.94,1981.81 1250.93,1982.63C1251.91,1983.47 1253.84,1984.39 1256.7,1985.42C1259.09,1986.28 1260.83,1987.06 1261.92,1987.75C1263.02,1988.44 1263.83,1989.23 1264.38,1990.11C1264.92,1990.99 1265.2,1992.02 1265.2,1993.21Z" style="fill:white;fill-rule:nonzero;"/>
        <path d="M1290.54,2000.12L1290.54,1982.9C1290.54,1980.24 1289.98,1978.29 1288.85,1977.08C1287.73,1975.87 1285.99,1975.26 1283.63,1975.26C1280.45,1975.26 1278.13,1976.06 1276.66,1977.67C1275.18,1979.27 1274.45,1981.87 1274.45,1985.47L1274.45,2000.12L1272.03,2000.12L1272.03,1962.13L1274.45,1962.13L1274.45,1974.21L1274.33,1977.61L1274.5,1977.61C1275.49,1976.01 1276.74,1974.86 1278.26,1974.14C1279.77,1973.42 1281.65,1973.07 1283.9,1973.07C1289.92,1973.07 1292.93,1976.3 1292.93,1982.76L1292.93,2000.12L1290.54,2000.12Z" style="fill:white;fill-rule:nonzero;"/>
        <path d="M1321.52,1998.46C1323.05,1998.46 1324.38,1998.33 1325.52,1998.07L1325.52,2000.02C1324.35,2000.41 1323,2000.6 1321.47,2000.6C1319.13,2000.6 1317.4,1999.98 1316.28,1998.72C1315.17,1997.47 1314.61,1995.5 1314.61,1992.82L1314.61,1975.68L1310.68,1975.68L1310.68,1974.26L1314.61,1973.16L1315.83,1967.16L1317.08,1967.16L1317.08,1973.58L1324.86,1973.58L1324.86,1975.68L1317.08,1975.68L1317.08,1992.47C1317.08,1994.51 1317.43,1996.01 1318.15,1996.99C1318.87,1997.97 1319.99,1998.46 1321.52,1998.46Z" style="fill:white;fill-rule:nonzero;"/>
        <path d="M1353.21,1986.81C1353.21,1991.14 1352.16,1994.52 1350.06,1996.95C1347.96,1999.39 1345.06,2000.6 1341.37,2000.6C1339.04,2000.6 1336.99,2000.04 1335.21,1998.92C1333.44,1997.8 1332.08,1996.18 1331.14,1994.09C1330.19,1991.99 1329.72,1989.56 1329.72,1986.81C1329.72,1982.48 1330.77,1979.11 1332.87,1976.69C1334.97,1974.27 1337.85,1973.07 1341.51,1973.07C1345.16,1973.07 1348.02,1974.29 1350.1,1976.74C1352.17,1979.19 1353.21,1982.55 1353.21,1986.81ZM1332.26,1986.81C1332.26,1990.46 1333.06,1993.3 1334.67,1995.34C1336.27,1997.39 1338.54,1998.41 1341.46,1998.41C1344.39,1998.41 1346.66,1997.39 1348.26,1995.34C1349.87,1993.3 1350.67,1990.46 1350.67,1986.81C1350.67,1983.15 1349.86,1980.31 1348.24,1978.29C1346.62,1976.27 1344.35,1975.26 1341.42,1975.26C1338.49,1975.26 1336.23,1976.27 1334.64,1978.28C1333.05,1980.29 1332.26,1983.13 1332.26,1986.81Z" style="fill:white;fill-rule:nonzero;"/>
        <path d="M1393.66,2000.12L1374.15,2000.12L1374.15,1964.42L1393.66,1964.42L1393.66,1966.72L1376.65,1966.72L1376.65,1980.22L1392.71,1980.22L1392.71,1982.51L1376.65,1982.51L1376.65,1997.82L1393.66,1997.82L1393.66,2000.12Z" style="fill:white;fill-rule:nonzero;"/>
        <path d="M1419.64,2000.12L1419.64,1982.9C1419.64,1980.24 1419.08,1978.29 1417.95,1977.08C1416.83,1975.87 1415.09,1975.26 1412.73,1975.26C1409.56,1975.26 1407.23,1976.06 1405.76,1977.67C1404.29,1979.27 1403.55,1981.87 1403.55,1985.47L1403.55,2000.12L1401.13,2000.12L1401.13,1973.58L1403.18,1973.58L1403.65,1977.22L1403.79,1977.22C1405.52,1974.45 1408.59,1973.07 1413,1973.07C1419.02,1973.07 1422.03,1976.3 1422.03,1982.76L1422.03,2000.12L1419.64,2000.12Z" style="fill:white;fill-rule:nonzero;"/>
        <path d="M1451.33,1973.58L1451.33,1975.26L1445.84,1975.6C1447.3,1977.43 1448.03,1979.43 1448.03,1981.61C1448.03,1984.16 1447.18,1986.24 1445.48,1987.82C1443.78,1989.41 1441.5,1990.2 1438.63,1990.2C1437.43,1990.2 1436.58,1990.15 1436.09,1990.06C1435.13,1990.56 1434.4,1991.16 1433.9,1991.84C1433.39,1992.52 1433.14,1993.25 1433.14,1994.01C1433.14,1994.86 1433.46,1995.48 1434.1,1995.87C1434.75,1996.26 1435.83,1996.45 1437.34,1996.45L1441.98,1996.45C1444.86,1996.45 1447.06,1997.04 1448.59,1998.2C1450.12,1999.36 1450.89,2001.08 1450.89,2003.36C1450.89,2006.16 1449.75,2008.32 1447.48,2009.85C1445.21,2011.37 1441.98,2012.13 1437.78,2012.13C1434.44,2012.13 1431.86,2011.49 1430.03,2010.2C1428.2,2008.91 1427.28,2007.12 1427.28,2004.83C1427.28,2003.01 1427.85,2001.49 1428.98,2000.29C1430.11,1999.08 1431.64,1998.26 1433.58,1997.82C1432.78,1997.48 1432.14,1997 1431.66,1996.37C1431.18,1995.74 1430.94,1995.02 1430.94,1994.21C1430.94,1992.43 1432.07,1990.87 1434.34,1989.52C1432.79,1988.88 1431.59,1987.89 1430.72,1986.53C1429.86,1985.17 1429.43,1983.61 1429.43,1981.85C1429.43,1979.2 1430.27,1977.07 1431.96,1975.47C1433.64,1973.87 1435.91,1973.07 1438.78,1973.07C1440.52,1973.07 1441.87,1973.24 1442.83,1973.58L1451.33,1973.58ZM1429.84,2004.61C1429.84,2008.25 1432.55,2010.08 1437.97,2010.08C1444.94,2010.08 1448.42,2007.86 1448.42,2003.41C1448.42,2001.82 1447.88,2000.66 1446.79,1999.94C1445.7,1999.23 1443.93,1998.87 1441.49,1998.87L1437.14,1998.87C1432.28,1998.87 1429.84,2000.78 1429.84,2004.61ZM1431.87,1981.85C1431.87,1983.9 1432.49,1985.5 1433.74,1986.63C1434.98,1987.76 1436.65,1988.32 1438.73,1988.32C1440.94,1988.32 1442.64,1987.76 1443.82,1986.64C1445,1985.52 1445.59,1983.89 1445.59,1981.76C1445.59,1979.49 1444.99,1977.8 1443.77,1976.67C1442.56,1975.54 1440.86,1974.97 1438.68,1974.97C1436.57,1974.97 1434.9,1975.58 1433.69,1976.79C1432.48,1978 1431.87,1979.69 1431.87,1981.85Z" style="fill:white;fill-rule:nonzero;"/>
        <rect x="1456.77" y="1962.13" width="2.417" height="37.988" style="fill:white;fill-rule:nonzero;"/>
        <path d="M1470.49,2000.12L1468.08,2000.12L1468.08,1973.58L1470.49,1973.58L1470.49,2000.12ZM1467.74,1966.21C1467.74,1964.64 1468.25,1963.86 1469.27,1963.86C1469.78,1963.86 1470.17,1964.07 1470.46,1964.47C1470.74,1964.88 1470.88,1965.46 1470.88,1966.21C1470.88,1966.94 1470.74,1967.52 1470.46,1967.94C1470.17,1968.36 1469.78,1968.57 1469.27,1968.57C1468.25,1968.57 1467.74,1967.78 1467.74,1966.21Z" style="fill:white;fill-rule:nonzero;"/>
        <path d="M1495.84,1993.21C1495.84,1995.58 1494.93,1997.41 1493.13,1998.69C1491.32,1999.97 1488.76,2000.6 1485.43,2000.6C1481.89,2000.6 1479.07,2000.06 1476.99,1998.97L1476.99,1996.36C1479.66,1997.69 1482.47,1998.36 1485.43,1998.36C1488.06,1998.36 1490.05,1997.92 1491.4,1997.05C1492.76,1996.18 1493.44,1995.02 1493.44,1993.57C1493.44,1992.24 1492.9,1991.12 1491.82,1990.2C1490.74,1989.29 1488.96,1988.4 1486.49,1987.52C1483.83,1986.56 1481.97,1985.73 1480.89,1985.04C1479.82,1984.35 1479.01,1983.57 1478.46,1982.7C1477.92,1981.83 1477.65,1980.76 1477.65,1979.51C1477.65,1977.53 1478.48,1975.95 1480.15,1974.8C1481.82,1973.64 1484.15,1973.07 1487.14,1973.07C1490.01,1973.07 1492.73,1973.6 1495.3,1974.68L1494.39,1976.87C1491.79,1975.8 1489.37,1975.26 1487.14,1975.26C1484.98,1975.26 1483.26,1975.62 1481.99,1976.34C1480.72,1977.05 1480.09,1978.05 1480.09,1979.32C1480.09,1980.7 1480.58,1981.81 1481.57,1982.63C1482.55,1983.47 1484.47,1984.39 1487.34,1985.42C1489.73,1986.28 1491.47,1987.06 1492.56,1987.75C1493.65,1988.44 1494.47,1989.23 1495.02,1990.11C1495.56,1990.99 1495.84,1992.02 1495.84,1993.21Z" style="fill:white;fill-rule:nonzero;"/>
        <path d="M1521.18,2000.12L1521.18,1982.9C1521.18,1980.24 1520.62,1978.29 1519.49,1977.08C1518.37,1975.87 1516.63,1975.26 1514.27,1975.26C1511.09,1975.26 1508.77,1976.06 1507.3,1977.67C1505.83,1979.27 1505.09,1981.87 1505.09,1985.47L1505.09,2000.12L1502.67,2000.12L1502.67,1962.13L1505.09,1962.13L1505.09,1974.21L1504.97,1977.61L1505.14,1977.61C1506.13,1976.01 1507.38,1974.86 1508.9,1974.14C1510.41,1973.42 1512.29,1973.07 1514.54,1973.07C1520.56,1973.07 1523.57,1976.3 1523.57,1982.76L1523.57,2000.12L1521.18,2000.12Z" style="fill:white;fill-rule:nonzero;"/>
    </g>
</svg>
