<?xml version="1.0" encoding="UTF-8" standalone="no"?>
<!DOCTYPE svg PUBLIC "-//W3C//DTD SVG 1.1//EN" "http://www.w3.org/Graphics/SVG/1.1/DTD/svg11.dtd">
<svg width="100%" height="100%" viewBox="0 0 200 200" version="1.1" xmlns="http://www.w3.org/2000/svg" xmlns:xlink="http://www.w3.org/1999/xlink" xml:space="preserve" xmlns:serif="http://www.serif.com/" style="fill-rule:evenodd;clip-rule:evenodd;stroke-linejoin:round;stroke-miterlimit:1.41421;">
    <g transform="matrix(0.105833,0,0,0.105833,35.625,6.25)">
        <g transform="matrix(26.5592,0,0,26.5588,608.254,-59.0551)">
            <path d="M0,71.154C19.649,71.154 35.577,55.226 35.577,35.577C35.577,15.929 19.649,0 0,0C-19.648,0 -35.576,15.929 -35.576,35.577C-35.576,55.226 -19.648,71.154 0,71.154" style="fill:rgb(11,129,127);fill-rule:nonzero;"/>
        </g>
        <g transform="matrix(1.27068,0,0,1.32974,-262.473,-511.083)">
            <path d="M105.427,1299.21L105.427,801.81L259.704,801.81C381.975,801.81 455.806,850.356 481.199,947.446C489.094,978.174 493.042,1012.63 493.042,1050.83L493.042,1063.95C493.042,1138.85 472.664,1196.68 431.907,1237.44C390.723,1278.62 332.469,1299.21 257.144,1299.21L105.427,1299.21ZM160.8,1248.96L257.144,1248.96C314.971,1248.96 359.462,1232 390.617,1198.07C420.704,1165.42 435.748,1120.71 435.748,1063.95L435.748,1050.83C434.467,982.761 420.384,933.043 393.497,901.675C365.33,868.813 320.306,852.383 258.424,852.383L160.8,852.383L160.8,1248.96Z" style="fill:white;fill-rule:nonzero;"/>
        </g>
        <g transform="matrix(1.30199,0,0,1.26549,-296.329,-474.788)">
            <path d="M789.393,1219.68C760.858,1248.86 725.51,1263.45 683.349,1263.45C653.371,1263.45 627.321,1254.15 605.199,1235.56C582.435,1216.48 569.931,1192.83 567.686,1164.62C567.526,1163.34 567.446,1162.05 567.446,1160.77C567.446,1159.49 567.446,1158.21 567.446,1156.92C567.446,1133.04 575.221,1111 590.771,1090.8C604.878,1072.36 623.714,1057.53 647.28,1046.31C629.646,1024.19 620.027,998.86 618.424,970.325C617.462,945.798 625.077,925.038 641.268,908.045C657.139,891.213 676.776,882.797 700.181,882.797C723.747,882.797 742.904,889.93 757.652,904.198C772.24,917.984 779.534,935.939 779.534,958.062C779.534,984.352 769.996,1005.75 750.919,1022.26C747.873,1024.83 744.026,1027.96 739.377,1031.64L699.22,1061.46C700.342,1062.9 701.424,1064.43 702.466,1066.03C703.508,1067.63 705.311,1070.04 707.876,1073.24C745.228,1117.65 772.16,1147.95 788.672,1164.14C799.733,1154.52 810.394,1139.37 820.653,1118.69C823.699,1112.44 826.424,1106.03 828.829,1099.45L863.937,1124.46C847.906,1153.96 830.593,1176.4 811.997,1191.79L869.227,1237L832.677,1267.54L789.393,1219.68ZM680.704,1033.57C706.033,1019.46 723.827,1001.43 734.087,979.463C737.774,971.768 739.617,962.59 739.617,951.93C739.617,941.269 736.291,932.813 729.638,926.561C722.985,920.309 714.93,917.183 705.472,917.183C696.013,917.183 688.439,918.626 682.748,921.511C677.057,924.397 672.288,928.244 668.44,933.053C660.585,942.832 656.658,955.016 656.658,969.604C656.658,988.2 663.952,1008.24 678.54,1029.72L680.704,1033.57ZM630.207,1205.14C637.1,1211.79 645.356,1217.08 654.974,1221.01C664.593,1224.93 674.091,1226.9 683.469,1226.9C692.847,1226.9 701.143,1226.06 708.357,1224.37C715.571,1222.69 722.545,1220.41 729.278,1217.52C742.583,1211.91 755.007,1204.54 766.549,1195.4L661.227,1076.61C647.921,1081.42 634.936,1092.16 622.272,1108.83C612.974,1123.42 608.325,1137.01 608.325,1149.59C608.325,1162.17 610.248,1172.91 614.096,1181.81C617.943,1190.71 623.314,1198.48 630.207,1205.14Z" style="fill:white;fill-rule:nonzero;"/>
        </g>
        <g transform="matrix(1.29245,0,0,1.32876,-327.355,-509.871)">
            <path d="M960.897,801.49L1084.13,801.49C1142.17,801.49 1185.06,810.132 1212.8,827.417C1245.02,847.475 1261.77,880.976 1263.05,927.921C1263.69,971.239 1249.08,1003.25 1219.2,1023.95C1210.03,1030.35 1200.1,1035.25 1189.43,1038.67C1216.75,1039.74 1240.33,1049.55 1260.17,1068.12C1283.64,1090.31 1294.74,1120.5 1293.46,1158.7C1292.18,1208.42 1275.75,1244.59 1244.17,1267.2C1212.59,1289.4 1163.72,1300.07 1097.57,1299.21L960.897,1299.21L960.897,801.49ZM1098.85,1023.31C1172.26,1025.22 1207.79,993.431 1205.44,927.921C1204.8,885.244 1181.64,860.065 1135.98,852.383C1120.83,850.035 1103.55,848.862 1084.13,848.862L1015.63,848.862L1015.63,1023.31L1098.85,1023.31ZM1097.57,1251.2C1141.74,1252.05 1174.82,1246.51 1196.8,1234.56C1221.98,1220.69 1234.99,1197.53 1235.85,1165.1C1236.91,1121.78 1222.62,1093.72 1192.95,1080.92C1176.74,1074.09 1158.87,1070.41 1139.34,1069.88C1119.82,1069.34 1103.76,1069.08 1091.17,1069.08L1015.63,1069.08L1015.63,1251.2L1097.57,1251.2Z" style="fill:white;fill-rule:nonzero;"/>
        </g>
    </g>
</svg>
